<svg width="43" height="90" viewBox="0 0 43 90" fill="none" xmlns="http://www.w3.org/2000/svg">
<mask id="mask0_1_1169" style="mask-type:luminance" maskUnits="userSpaceOnUse" x="0" y="0" width="94" height="90">
<path d="M92.8911 1.19531V0.695312H92.3911L1.63086 0.695312H1.13086V1.19531L1.13086 88.1528L1.13086 88.6528H1.63086H92.3911H92.8911V88.1528V1.19531Z" fill="white" stroke="white"/>
</mask>
<g mask="url(#mask0_1_1169)">
<path d="M37.373 72.5724L37.3747 72.575C40.4788 77.3205 42.5667 81.7804 43.6545 85.9553C44.0562 87.4972 45.4583 88.6528 47.1263 88.6528C48.7967 88.6528 50.2012 87.4932 50.598 85.9461L50.1136 85.8219L50.598 85.946C51.6838 81.7103 53.774 77.2162 56.8833 72.4618C59.3769 68.6545 62.5761 65.0268 66.4862 61.5802L66.4901 61.5766C70.4019 58.0537 74.6256 55.0187 79.1621 52.4707C82.9138 50.3995 86.5536 48.9029 90.0808 47.9764L89.9538 47.4928L90.0808 47.9764C91.672 47.5583 92.8911 46.1941 92.8911 44.5381C92.8911 42.9077 91.7078 41.5505 90.1346 41.1317C84.5577 39.6467 79.0621 37.0692 73.6463 33.3913C69.5005 30.5431 65.7467 27.3589 62.385 23.8389C59.1028 20.2445 56.411 16.505 54.3056 12.6209C52.6318 9.47222 51.4051 6.40177 50.6214 3.40923C50.2133 1.85099 48.7919 0.695312 47.1113 0.695312C45.4494 0.695312 44.0367 1.82584 43.618 3.36499C42.2589 8.36079 39.7531 13.4282 36.0868 18.5673C31.948 24.3281 26.7928 29.2684 20.6169 33.388C15.2418 36.9532 9.65968 39.5257 3.86992 41.1095L4.00185 41.5918L3.86991 41.1095C2.29848 41.5394 1.13086 42.9036 1.13086 44.5306C1.13086 46.1913 2.34506 47.567 3.94557 47.9884C9.83701 49.5405 15.7431 52.4536 21.6641 56.7413L21.6664 56.7429C28.4811 61.6212 33.7113 66.8991 37.373 72.5724Z" stroke="white"/>
</g>
</svg>
