<svg width="45" height="45" viewBox="0 0 45 45" fill="none" xmlns="http://www.w3.org/2000/svg">
<path d="M37.1665 12.5631C37.5297 12.5583 37.8767 12.4119 38.1335 12.1551C38.3904 11.8983 38.5368 11.5513 38.5415 11.1881V7.5214C38.5415 7.15673 38.3966 6.80699 38.1388 6.54913C37.8809 6.29127 37.5312 6.1464 37.1665 6.1464C36.8018 6.1464 36.4521 6.29127 36.1942 6.54913C35.9364 6.80699 35.7915 7.15673 35.7915 7.5214V11.1881C35.7963 11.5513 35.9426 11.8983 36.1995 12.1551C36.4563 12.4119 36.8033 12.5583 37.1665 12.5631ZM29.8332 10.7297C30.1964 10.725 30.5434 10.5786 30.8002 10.3218C31.057 10.0649 31.2034 9.71793 31.2082 9.35474V3.85474C31.2082 3.49006 31.0633 3.14033 30.8054 2.88246C30.5476 2.6246 30.1978 2.47974 29.8332 2.47974C29.4685 2.47974 29.1188 2.6246 28.8609 2.88246C28.603 3.14033 28.4582 3.49006 28.4582 3.85474V9.35474C28.4629 9.71793 28.6093 10.0649 28.8661 10.3218C29.123 10.5786 29.47 10.725 29.8332 10.7297ZM22.4998 12.5631C22.863 12.5583 23.21 12.4119 23.4669 12.1551C23.7237 11.8983 23.8701 11.5513 23.8748 11.1881V7.5214C23.8748 7.15673 23.73 6.80699 23.4721 6.54913C23.2142 6.29127 22.8645 6.1464 22.4998 6.1464C22.1352 6.1464 21.7854 6.29127 21.5276 6.54913C21.2697 6.80699 21.1248 7.15673 21.1248 7.5214V11.1881C21.1296 11.5513 21.276 11.8983 21.5328 12.1551C21.7897 12.4119 22.1366 12.5583 22.4998 12.5631ZM15.1665 10.7297C15.5297 10.725 15.8767 10.5786 16.1335 10.3218C16.3904 10.0649 16.5368 9.71793 16.5415 9.35474V5.68807C16.5415 5.3234 16.3966 4.97366 16.1388 4.7158C15.8809 4.45794 15.5312 4.31307 15.1665 4.31307C14.8018 4.31307 14.4521 4.45794 14.1942 4.7158C13.9364 4.97366 13.7915 5.3234 13.7915 5.68807V9.35474C13.7963 9.71793 13.9426 10.0649 14.1995 10.3218C14.4563 10.5786 14.8033 10.725 15.1665 10.7297Z" fill="#4ABB82"/>
<path d="M24.3331 41.8963H27.9998C31.7666 41.8915 35.3777 40.393 38.0412 37.7294C40.7048 35.0659 42.2033 31.4548 42.2081 27.688V18.5213C42.2033 17.6719 41.8638 16.8586 41.2631 16.258C40.6625 15.6574 39.8492 15.3178 38.9998 15.313H13.3331C12.4837 15.3178 11.6704 15.6574 11.0698 16.258C10.4692 16.8586 10.1296 17.6719 10.1248 18.5213V27.688C10.1296 31.4548 11.6281 35.0659 14.2917 37.7294C16.9552 40.393 20.5663 41.8915 24.3331 41.8963ZM38.9998 18.063C39.1214 18.063 39.2379 18.1113 39.3239 18.1972C39.4098 18.2832 39.4581 18.3998 39.4581 18.5213V27.688C39.4581 30.7269 38.2509 33.6414 36.1021 35.7903C33.9532 37.9391 31.0387 39.1463 27.9998 39.1463H24.3331C22.8284 39.1463 21.3384 38.8499 19.9482 38.2741C18.558 37.6983 17.2949 36.8543 16.2309 35.7903C15.1669 34.7263 14.3228 33.4631 13.747 32.0729C13.1712 30.6827 12.8748 29.1927 12.8748 27.688V18.5213C12.8748 18.3998 12.9231 18.2832 13.009 18.1972C13.095 18.1113 13.2116 18.063 13.3331 18.063H38.9998Z" fill="#1D1D35"/>
<path d="M8.74976 30.8964H11.4998C11.863 30.8917 12.2099 30.7453 12.4668 30.4884C12.7236 30.2316 12.87 29.8846 12.8748 29.5214V20.3547C12.87 19.9915 12.7236 19.6446 12.4668 19.3877C12.2099 19.1309 11.863 18.9845 11.4998 18.9797H8.74976C7.16951 18.9797 5.65398 19.6075 4.53658 20.7249C3.41917 21.8423 2.79142 23.3578 2.79142 24.9381C2.79142 26.5183 3.41917 28.0338 4.53658 29.1512C5.65398 30.2687 7.16951 30.8964 8.74976 30.8964ZM10.1248 28.1464H8.74976C7.89885 28.1464 7.0828 27.8084 6.48112 27.2067C5.87944 26.605 5.54142 25.789 5.54142 24.9381C5.54142 24.0872 5.87944 23.2711 6.48112 22.6694C7.0828 22.0678 7.89885 21.7297 8.74976 21.7297H10.1248V28.1464Z" fill="#1D1D35"/>
</svg>
