<svg width="88" height="84" viewBox="0 0 88 84" fill="none" xmlns="http://www.w3.org/2000/svg">
<g opacity="0.9">
<path d="M32.8039 106.983C50.9328 92.6148 54.1755 67.616 39.9493 51.1394C25.723 34.6628 -0.514375 33.0294 -18.6433 47.3981C-36.7723 61.7668 -40.0149 86.7655 -25.7887 103.242C-11.5625 119.719 14.6749 121.352 32.8039 106.983Z" stroke="white" stroke-miterlimit="10"/>
<path d="M30.7712 29.2907L61.1185 64.4384C62.5118 66.0521 65.0013 66.2737 66.678 64.9448C68.3546 63.616 68.594 61.2315 67.2007 59.6177L36.8535 24.47C35.4601 22.8562 32.9706 22.6347 31.294 23.9636C29.6173 25.2924 29.3779 27.6769 30.7712 29.2907Z" stroke="white"/>
<path d="M48.8707 27.1675L68.5435 49.9523C69.7233 51.3186 71.8304 51.5055 73.2488 50.3813L74.1838 49.6402C75.6022 48.516 75.8055 46.4979 74.6258 45.1316L54.9529 22.3468C53.7732 20.9804 51.6661 20.7936 50.2477 21.9178L49.3127 22.6589C47.8943 23.783 47.691 25.8011 48.8707 27.1675Z" stroke="white"/>
</g>
</svg>
