<svg width="36" height="41" viewBox="0 0 36 41" fill="none" xmlns="http://www.w3.org/2000/svg">
<path d="M35.0168 40.1264C35.0168 40.1264 29.2391 37.8531 24.5653 36.0342H4.91287C3.76119 35.9993 2.67042 35.5088 1.88004 34.6704C1.08967 33.832 0.664282 32.7143 0.697282 31.5625V5.37048C0.66534 4.21956 1.09124 3.10297 1.88155 2.26568C2.67186 1.42839 3.76202 0.938794 4.91287 0.904297L30.8028 0.904297C31.9541 0.938381 33.0447 1.42807 33.8352 2.26579C34.6256 3.10351 35.0512 4.22074 35.0184 5.37204V27.9332L35.0168 40.1264ZM29.9425 25.4398C29.8507 25.3219 29.7354 25.2244 29.604 25.1534C29.4725 25.0825 29.3277 25.0396 29.1788 25.0274C29.0299 25.0153 28.8801 25.0343 28.7389 25.0831C28.5977 25.1319 28.4682 25.2095 28.3586 25.311C28.3219 25.343 24.6629 28.5968 17.8547 28.5968C11.1309 28.5968 7.41568 25.3656 7.34932 25.3071C7.23958 25.2062 7.11013 25.1292 6.96914 25.0809C6.82816 25.0326 6.67869 25.014 6.53017 25.0263C6.38164 25.0387 6.23728 25.0816 6.10618 25.1525C5.97509 25.2234 5.8601 25.3207 5.76848 25.4382C5.57217 25.6831 5.47618 25.9934 5.49993 26.3063C5.52066 26.6178 5.66042 26.9093 5.89026 27.1206C6.06435 27.2767 10.2253 30.9817 17.8555 30.9817C25.4857 30.9817 29.6482 27.2775 29.8223 27.1206C30.0521 26.9093 30.1918 26.6178 30.2126 26.3063C30.2364 25.9941 30.141 25.6845 29.9456 25.4398H29.9425Z" fill="white"/>
</svg>
