<svg width="30" height="80" viewBox="0 0 30 80" fill="none" xmlns="http://www.w3.org/2000/svg">
<mask id="mask0_1_1180" style="mask-type:luminance" maskUnits="userSpaceOnUse" x="0" y="0" width="84" height="80">
<path d="M83.4479 0.0703125L0.775024 0.0703125L0.775024 79.2792H83.4479V0.0703125Z" fill="white"/>
</mask>
<g mask="url(#mask0_1_1180)">
<path d="M42.2164 79.2792C40.9126 79.2792 39.8105 78.3747 39.4948 77.1628C38.4884 73.3001 36.5618 69.1924 33.715 64.8402C30.3421 59.6144 25.5338 54.7672 19.2903 50.2979C13.86 46.3656 8.42975 43.6839 2.9995 42.2534C1.71338 41.9148 0.775024 40.8221 0.775024 39.5442C0.775024 38.2912 1.67729 37.2112 2.93474 36.8672C8.25878 35.4108 13.3877 33.0462 18.3215 29.7737C23.9909 25.992 28.7273 21.4539 32.5309 16.1596C35.8957 11.4433 38.2055 6.77883 39.4603 2.16621C39.789 0.957829 40.8993 0.0703125 42.2028 0.0703125C43.5206 0.0703125 44.6388 0.977484 44.9595 2.20234C45.6838 4.96756 46.8155 7.79794 48.3549 10.6934C50.2928 14.2688 52.7684 17.7067 55.7827 21.0071C58.8684 24.2387 62.3134 27.1609 66.1168 29.7737C71.0871 33.1492 76.1396 35.5207 81.2752 36.8882C82.5352 37.2236 83.4479 38.2983 83.4479 39.551C83.4479 40.8225 82.5075 41.9061 81.2277 42.2423C77.9725 43.0974 74.6217 44.4764 71.1763 46.3786C67.0138 48.7165 63.1385 51.5011 59.5501 54.7328C55.9621 57.8956 53.0197 61.2303 50.7231 64.7369C47.8709 69.0981 45.9421 73.2376 44.9376 77.156C44.6259 78.3715 43.5223 79.2792 42.2164 79.2792Z" fill="#F7C309"/>
</g>
</svg>
