<svg width="104" height="48" viewBox="0 0 104 48" fill="none" xmlns="http://www.w3.org/2000/svg">
<path d="M7.0919 30.8785H0.0587604V34.3952H7.0919V30.8785Z" fill="#BBBCC3"/>
<path d="M17.6385 30.8785H10.6097V34.3952H17.6385V30.8785Z" fill="#BBBCC3"/>
<path d="M17.6403 23.8455H0.0546875V27.3622H17.6403V23.8455Z" fill="#BBBCC3"/>
<path d="M10.6095 16.8129H0.0587644V20.3294H10.6095V16.8129Z" fill="#BBBCC3"/>
<path d="M17.6421 16.8129H14.1256V20.3294H17.6421V16.8129Z" fill="#BBBCC3"/>
<path d="M68.693 16.7929C63.0453 16.7929 60.1285 20.7868 60.1285 25.7135C60.1285 30.6404 62.9734 34.6348 68.693 34.6348C74.4126 34.6348 77.2576 30.6404 77.2576 25.7135C77.2578 20.7868 74.3405 16.7929 68.693 16.7929ZM72.9658 25.7295C72.9618 28.8976 71.8942 31.4637 68.693 31.4637C65.4918 31.4637 64.4241 28.8978 64.4207 25.7295V25.7137C64.4241 22.5458 65.492 19.9799 68.6933 19.9799C71.8942 19.9799 72.9618 22.5458 72.9658 25.7137V25.7217C72.9658 25.7244 72.9658 25.7268 72.9658 25.7295Z" fill="#BBBCC3"/>
<path d="M43.4051 34.3949V9.73066C43.4051 9.73066 46.6582 9.26856 46.9105 9.23462C47.1962 9.19602 47.5755 9.39945 47.5755 9.80165V18.9448C48.2506 18.303 48.994 17.7856 49.8042 17.3914C50.615 16.9976 51.5659 16.8004 52.6582 16.8004C53.604 16.8004 54.4419 16.9608 55.1735 17.2818C55.9056 17.6022 56.5163 18.0529 57.0059 18.6322C57.4956 19.2123 57.8671 19.9045 58.1205 20.7093C58.3736 21.5142 58.5003 22.4007 58.5003 23.3688V34.3947H54.3296V23.3688C54.3296 22.3108 54.0847 21.4918 53.5951 20.9116C53.1052 20.3322 52.3707 20.0422 51.3911 20.0422C50.6707 20.0422 49.9957 20.2055 49.3656 20.5323C48.7349 20.8588 48.1384 21.303 47.5755 21.8662V34.3949H43.4051Z" fill="#BBBCC3"/>
<path d="M99.0839 34.6324C96.2139 34.6324 94.4152 32.9622 94.4152 29.8461V20.6112H91.1807C91.1807 20.6112 91.8682 18.2335 91.9226 18.0462C91.9771 17.8592 92.1193 17.6582 92.4049 17.6185C92.6904 17.5788 94.4112 17.3388 94.4112 17.3388L95.2061 12.282C95.2061 12.282 97.5414 11.9528 97.9117 11.8976C98.2613 11.8452 98.5783 12.097 98.5783 12.4779V17.3388H102.669V20.6112H98.5783V29.7217C98.5783 30.9656 99.3357 31.441 100.062 31.441C100.505 31.441 101.113 31.2054 101.566 30.9951C101.847 30.8655 102.281 30.9616 102.393 31.3527C102.492 31.6992 103.019 33.5385 103.019 33.5385C102.564 33.8323 101.126 34.6324 99.0839 34.6324Z" fill="#BBBCC3"/>
<path d="M88.8898 20.6663C88.077 20.4023 86.5492 19.9797 85.0959 19.9797C83.615 19.9797 82.4499 20.4913 82.4499 21.7225C82.4499 23.2604 84.961 23.708 86.6798 24.335C87.829 24.754 90.9106 25.5711 90.9106 28.8855C90.9106 32.9115 87.5672 34.6328 84.0006 34.6328C80.4336 34.6328 78.3263 33.3062 78.3263 33.3062C78.3263 33.3062 78.8795 31.3517 78.9916 30.9659C79.093 30.6187 79.4965 30.4969 79.7536 30.5957C80.6716 30.9495 82.3292 31.4413 84.2029 31.4413C86.0999 31.4413 87.0177 30.8621 87.0177 29.6273C87.0177 27.9839 84.4561 27.4816 82.7618 26.9472C81.5947 26.5794 78.5055 25.7215 78.5055 22.0764C78.5055 18.4856 81.6586 16.8009 85.0284 16.8009C87.8809 16.8009 89.2801 17.3975 90.3252 17.9299C90.3252 17.9299 89.7428 19.9595 89.6563 20.2619C89.5543 20.6213 89.2594 20.7861 88.8898 20.6663Z" fill="#BBBCC3"/>
<path d="M41.7777 17.3954C41.7777 17.0069 41.4458 16.7846 41.1293 16.8208C39.7296 16.9812 38.7311 17.6398 38.0851 18.253C36.8166 17.2591 35.0558 16.7846 33.0796 16.7846C29.1175 16.7846 26.0219 18.6969 26.0219 22.8667C26.0219 25.2604 27.0408 26.9098 28.6589 27.8808C27.4572 28.4497 26.6568 29.6567 26.6568 30.8434C26.6568 32.8284 28.225 33.45 28.225 33.45C28.225 33.45 25.483 34.7809 25.483 37.4435C25.483 40.8519 28.6197 42.23 32.4525 42.23C37.9773 42.23 41.7784 39.9481 41.7784 35.7581C41.7784 33.1794 39.8051 31.7558 35.5048 31.5865C32.953 31.4858 31.3 31.394 30.8905 31.2584C30.3494 31.0787 30.0834 30.6455 30.0834 30.1672C30.0834 29.6392 30.5171 29.1365 31.2008 28.7913C31.7971 28.8969 32.4265 28.949 33.0801 28.949C37.0455 28.949 40.1381 27.0423 40.1381 22.8669C40.1381 21.8544 39.9553 20.9755 39.6229 20.2245C40.2055 19.9137 40.9223 19.695 41.7782 19.695C41.7782 19.695 41.7777 17.7496 41.7777 17.3954ZM30.8587 34.4168C30.8587 34.4168 32.9394 34.4956 35.0186 34.5919C37.3544 34.6999 38.0822 35.2033 38.0822 36.4128C38.0822 37.8905 36.0523 39.3278 33.2156 39.3278C30.5229 39.3278 29.1778 38.391 29.1778 36.8312C29.1778 35.9362 29.6504 34.9351 30.8587 34.4168ZM33.0872 26.0384C31.2101 26.0384 29.7457 25.0415 29.7457 22.8667C29.7457 20.6917 31.2115 19.6948 33.0872 19.6948C34.9631 19.6948 36.4286 20.6891 36.4286 22.8667C36.4286 25.0443 34.9649 26.0384 33.0872 26.0384Z" fill="#BBBCC3"/>
</svg>
