<svg width="114" height="48" viewBox="0 0 114 48" fill="none" xmlns="http://www.w3.org/2000/svg">
<path d="M12.3085 13.1064V22.1942H3.96242V13.1064H0V34.7997H3.96242V26.0071H12.3085V34.7997H16.2709V13.1064H12.3085Z" fill="#BBBCC3"/>
<path d="M28.9522 27.7869C28.9522 28.6563 28.6068 29.4901 27.9921 30.1049C27.3773 30.7196 26.5435 31.065 25.6741 31.065C24.8047 31.065 23.971 30.7196 23.3562 30.1049C22.7414 29.4901 22.3961 28.6563 22.3961 27.7869V18.4953H18.6375V27.7869C18.6375 29.6513 19.3781 31.4394 20.6965 32.7578C22.0149 34.0761 23.8029 34.8167 25.6673 34.8167C27.5318 34.8167 29.3198 34.0761 30.6382 32.7578C31.9565 31.4394 32.6972 29.6513 32.6972 27.7869V18.4953H28.9522V27.7869Z" fill="#BBBCC3"/>
<path d="M56.8007 19.4529C56.8007 17.5484 58.0606 16.9446 59.441 16.9446C60.5534 16.9446 62.0231 17.7911 62.9841 18.8181L65.4458 15.9176C64.2169 14.2558 61.7241 13.1065 59.6837 13.1065C55.6067 13.1065 52.6577 15.4944 52.6577 19.4529C52.6577 26.7973 61.6348 24.4676 61.6348 28.5775C61.6348 29.8453 60.4039 30.9655 58.9945 30.9655C56.7715 30.9655 56.0513 29.8783 55.0301 28.729L52.2985 31.5693C54.0458 33.7145 56.2008 34.8036 58.7828 34.8036C62.656 34.8036 65.7719 32.3866 65.7719 28.6086C65.7719 20.4547 56.7948 22.9882 56.7948 19.4529" fill="#BBBCC3"/>
<path d="M112.337 31.3341C110.116 31.3341 109.485 30.3731 109.485 28.9015V22.3881H112.937V19.0877H109.485V14.7331L105.674 16.4435V29.7111C105.674 33.1047 108.015 34.815 111.226 34.815C111.73 34.8242 112.233 34.7839 112.729 34.6947L113.659 31.272C113.239 31.3011 112.758 31.3302 112.337 31.3302" fill="#BBBCC3"/>
<path d="M43.2594 18.6049C41.3976 18.6049 40.0988 19.1446 38.8427 20.3774V13.2369H35.0783V26.4715C35.0783 31.4259 38.6602 34.8195 42.6847 34.8195C47.15 34.8195 51.0774 31.3658 51.0774 26.7141C51.0774 22.1208 47.4625 18.6068 43.2594 18.6068V18.6049ZM43.2361 31.0318C42.3913 31.0318 41.5656 30.7813 40.8632 30.312C40.1608 29.8427 39.6134 29.1757 39.2901 28.3952C38.9668 27.6148 38.8822 26.756 39.0471 25.9275C39.2119 25.099 39.6186 24.3379 40.216 23.7406C40.8133 23.1433 41.5743 22.7365 42.4028 22.5717C43.2313 22.4069 44.0901 22.4915 44.8706 22.8148C45.651 23.138 46.3181 23.6855 46.7874 24.3878C47.2567 25.0902 47.5072 25.916 47.5072 26.7607C47.5072 27.8935 47.0572 28.9799 46.2562 29.7809C45.4552 30.5818 44.3688 31.0318 43.2361 31.0318Z" fill="#BBBCC3"/>
<path d="M84.1336 26.5153C84.1336 21.8559 80.2139 18.4099 75.7409 18.4099C71.7164 18.4099 68.1345 21.8035 68.1345 26.758V40.0003H71.8989V32.8501C73.153 34.0809 74.4538 34.6226 76.3136 34.6226C80.5168 34.6226 84.1317 31.1106 84.1317 26.5153H84.1336ZM80.5692 26.4687C80.5692 27.3134 80.3187 28.1392 79.8494 28.8416C79.3801 29.544 78.713 30.0914 77.9326 30.4147C77.1521 30.7379 76.2934 30.8225 75.4648 30.6577C74.6363 30.4929 73.8753 30.0861 73.278 29.4888C72.6806 28.8915 72.2739 28.1304 72.1091 27.3019C71.9443 26.4734 72.0288 25.6146 72.3521 24.8342C72.6754 24.0538 73.2228 23.3867 73.9252 22.9174C74.6276 22.4481 75.4533 22.1976 76.2981 22.1976C77.4309 22.1976 78.5172 22.6476 79.3182 23.4486C80.1192 24.2495 80.5692 25.3359 80.5692 26.4687Z" fill="#BBBCC3"/>
<path d="M96.2573 18.3496V14.6066C96.752 14.3756 97.1708 14.0088 97.465 13.5489C97.7592 13.089 97.9167 12.555 97.9191 12.009V11.9216C97.9171 11.1587 97.6131 10.4276 97.0736 9.88807C96.5341 9.34858 95.803 9.04459 95.04 9.04254H94.9527C94.1897 9.04459 93.4586 9.34858 92.9191 9.88807C92.3796 10.4276 92.0756 11.1587 92.0736 11.9216V12.009C92.076 12.555 92.2335 13.089 92.5277 13.5489C92.8219 14.0088 93.2407 14.3756 93.7354 14.6066V18.3496C92.3132 18.5671 90.9738 19.1565 89.8526 20.0581L79.5748 12.0614C79.6479 11.7976 79.6871 11.5256 79.6913 11.2519C79.692 10.6095 79.5023 9.98128 79.146 9.44673C78.7898 8.91217 78.283 8.49527 77.6898 8.24873C77.0966 8.00219 76.4436 7.93708 75.8134 8.06166C75.1833 8.18623 74.6041 8.49487 74.1494 8.94857C73.6946 9.40226 73.3846 9.98063 73.2585 10.6105C73.1324 11.2404 73.1959 11.8936 73.4411 12.4873C73.6862 13.0811 74.1019 13.5889 74.6356 13.9464C75.1693 14.3039 75.797 14.4952 76.4394 14.496C77.0037 14.4939 77.5574 14.3432 78.0449 14.0591L88.15 21.9257C87.2398 23.2989 86.765 24.9146 86.7875 26.5619C86.81 28.2091 87.3288 29.8113 88.2762 31.1591L85.201 34.2343C84.9541 34.1557 84.697 34.1138 84.438 34.11C83.91 34.11 83.3939 34.2666 82.9549 34.5599C82.516 34.8532 82.1738 35.2701 81.9718 35.7579C81.7697 36.2457 81.7169 36.7824 81.8199 37.3002C81.9229 37.818 82.1771 38.2937 82.5504 38.667C82.9238 39.0403 83.3994 39.2946 83.9172 39.3976C84.435 39.5006 84.9718 39.4477 85.4596 39.2457C85.9473 39.0436 86.3642 38.7015 86.6576 38.2625C86.9509 37.8235 87.1074 37.3074 87.1074 36.7794C87.1039 36.5204 87.062 36.2633 86.9832 36.0165L90.0254 32.9743C91.0184 33.7328 92.1717 34.2544 93.3971 34.4993C94.6225 34.7441 95.8876 34.7058 97.0959 34.3871C98.3042 34.0685 99.4237 33.478 100.369 32.6607C101.314 31.8434 102.06 30.8209 102.55 29.6713C103.04 28.5217 103.261 27.2754 103.196 26.0275C103.13 24.7796 102.781 23.5631 102.174 22.4709C101.567 21.3786 100.718 20.4395 99.6926 19.7253C98.6673 19.0111 97.4922 18.5405 96.2573 18.3496ZM94.9973 30.6621C94.1649 30.6621 93.3511 30.4152 92.6589 29.9527C91.9668 29.4902 91.4273 28.8329 91.1087 28.0638C90.7902 27.2947 90.7068 26.4484 90.8692 25.632C91.0316 24.8155 91.4325 24.0655 92.0211 23.4769C92.6098 22.8883 93.3597 22.4874 94.1762 22.325C94.9927 22.1626 95.8389 22.2459 96.608 22.5645C97.3771 22.8831 98.0345 23.4225 98.497 24.1147C98.9594 24.8069 99.2063 25.6206 99.2063 26.4531C99.2063 27.5694 98.7629 28.6399 97.9735 29.4293C97.1842 30.2186 96.1136 30.6621 94.9973 30.6621Z" fill="#BBBCC3"/>
</svg>
