<svg width="45" height="45" viewBox="0 0 45 45" fill="none" xmlns="http://www.w3.org/2000/svg">
<path d="M22.0733 15.3156C21.7087 15.3155 21.359 15.1706 21.1011 14.9128C20.8433 14.6549 20.6984 14.3052 20.6983 13.9406V10.2739C20.6983 9.90925 20.8432 9.55952 21.101 9.30165C21.3589 9.04379 21.7086 8.89893 22.0733 8.89893C22.438 8.89893 22.7877 9.04379 23.0456 9.30165C23.3034 9.55952 23.4483 9.90925 23.4483 10.2739V13.9406C23.4482 14.3052 23.3033 14.6549 23.0455 14.9128C22.7876 15.1706 22.4379 15.3155 22.0733 15.3156Z" fill="#4ABB82"/>
<path d="M12.9066 15.3156C12.542 15.3155 12.1923 15.1706 11.9345 14.9128C11.6766 14.6549 11.5317 14.3052 11.5316 13.9406V10.2739C11.5316 9.90925 11.6765 9.55952 11.9343 9.30165C12.1922 9.04379 12.5419 8.89893 12.9066 8.89893C13.2713 8.89893 13.621 9.04379 13.8789 9.30165C14.1368 9.55952 14.2816 9.90925 14.2816 10.2739V13.9406C14.2815 14.3052 14.1366 14.6549 13.8788 14.9128C13.6209 15.1706 13.2713 15.3155 12.9066 15.3156Z" fill="#4ABB82"/>
<path d="M31.2399 15.3156C30.8753 15.3155 30.5256 15.1706 30.2678 14.9128C30.0099 14.6549 29.865 14.3052 29.8649 13.9406V10.2739C29.8649 9.90925 30.0098 9.55952 30.2677 9.30165C30.5255 9.04379 30.8753 8.89893 31.2399 8.89893C31.6046 8.89893 31.9543 9.04379 32.2122 9.30165C32.4701 9.55952 32.6149 9.90925 32.6149 10.2739V13.9406C32.6148 14.3052 32.4699 14.6549 32.2121 14.9128C31.9543 15.1706 31.6046 15.3155 31.2399 15.3156Z" fill="#4ABB82"/>
<path d="M38.5733 40.0655H5.57326C4.72268 40.0645 3.90723 39.7261 3.30577 39.1247C2.70431 38.5232 2.36596 37.7078 2.36493 36.8572V27.6905C2.36596 26.8399 2.70431 26.0245 3.30577 25.423C3.90723 24.8216 4.72268 24.4832 5.57326 24.4822H38.5733C39.4238 24.4832 40.2393 24.8216 40.8408 25.423C41.4422 26.0245 41.7806 26.8399 41.7816 27.6905V36.8572C41.7806 37.7078 41.4422 38.5232 40.8408 39.1247C40.2393 39.7261 39.4238 40.0645 38.5733 40.0655ZM5.57326 27.2322C5.45178 27.2324 5.33533 27.2808 5.24943 27.3667C5.16353 27.4526 5.11516 27.569 5.11493 27.6905V36.8572C5.11516 36.9787 5.16353 37.0951 5.24943 37.181C5.33533 37.2669 5.45178 37.3153 5.57326 37.3155H38.5733C38.6947 37.3153 38.8112 37.2669 38.8971 37.181C38.983 37.0951 39.0314 36.9787 39.0316 36.8572V27.6905C39.0314 27.569 38.983 27.4526 38.8971 27.3667C38.8112 27.2808 38.6947 27.2324 38.5733 27.2322H5.57326Z" fill="#1D1D35"/>
<path d="M36.7399 27.2322H7.40662C7.04197 27.2321 6.69229 27.0872 6.43445 26.8293C6.17661 26.5715 6.03171 26.2218 6.03162 25.8572V16.6905C6.03265 15.8399 6.371 15.0245 6.97246 14.423C7.57391 13.8216 8.38936 13.4832 9.23995 13.4822H34.9066C35.7572 13.4832 36.5727 13.8216 37.1741 14.423C37.7756 15.0245 38.1139 15.8399 38.1149 16.6905V25.8572C38.1148 26.2218 37.97 26.5715 37.7121 26.8293C37.4543 27.0872 37.1046 27.2321 36.7399 27.2322ZM8.78162 24.4822H35.3649V16.6905C35.3647 16.569 35.3164 16.4526 35.2304 16.3667C35.1445 16.2808 35.0281 16.2324 34.9066 16.2322H9.23995C9.11846 16.2324 9.00202 16.2808 8.91612 16.3667C8.83021 16.4526 8.78185 16.569 8.78162 16.6905V24.4822Z" fill="#1D1D35"/>
<path d="M22.0733 7.52384C23.0858 7.52384 23.9066 6.70303 23.9066 5.69051C23.9066 4.67799 23.0858 3.85718 22.0733 3.85718C21.0607 3.85718 20.2399 4.67799 20.2399 5.69051C20.2399 6.70303 21.0607 7.52384 22.0733 7.52384Z" fill="#4ABB82"/>
<path d="M12.9066 7.52384C13.9191 7.52384 14.7399 6.70303 14.7399 5.69051C14.7399 4.67799 13.9191 3.85718 12.9066 3.85718C11.8941 3.85718 11.0732 4.67799 11.0732 5.69051C11.0732 6.70303 11.8941 7.52384 12.9066 7.52384Z" fill="#4ABB82"/>
<path d="M31.2399 7.52384C32.2525 7.52384 33.0733 6.70303 33.0733 5.69051C33.0733 4.67799 32.2525 3.85718 31.2399 3.85718C30.2274 3.85718 29.4066 4.67799 29.4066 5.69051C29.4066 6.70303 30.2274 7.52384 31.2399 7.52384Z" fill="#4ABB82"/>
</svg>
