<svg width="35" height="36" viewBox="0 0 35 36" fill="none" xmlns="http://www.w3.org/2000/svg">
<g clip-path="url(#clip0_1_1473)">
<path d="M31.938 6.34769C31.0578 5.46716 30.0128 4.76866 28.8627 4.2921C27.7125 3.81554 26.4797 3.57025 25.2347 3.57025C23.9898 3.57025 22.757 3.81554 21.6068 4.2921C20.4567 4.76866 19.4117 5.46716 18.5315 6.34769C18.1467 6.72369 17.8075 7.14366 17.5209 7.59894C16.6468 6.35397 15.4856 5.33792 14.1356 4.63678C12.7857 3.93565 11.2867 3.57008 9.76548 3.57102C7.89088 3.57142 6.05849 4.12763 4.49998 5.16933C2.94147 6.21104 1.72681 7.69145 1.00958 9.42342C0.292354 11.1554 0.104759 13.0611 0.470514 14.8997C0.83627 16.7382 1.73895 18.4271 3.06444 19.7527L14.7107 31.3989C15.451 32.1387 16.4547 32.5543 17.5012 32.5543C18.5477 32.5543 19.5515 32.1387 20.2917 31.3989L31.9365 19.7527C33.7112 17.9735 34.7078 15.5631 34.7078 13.0502C34.7078 10.5372 33.7126 8.12686 31.938 6.34769ZM29.8744 17.6906L18.2296 29.3369C18.0331 29.5241 17.772 29.6285 17.5005 29.6285C17.229 29.6285 16.9679 29.5241 16.7713 29.3369L5.12652 17.6906C4.48308 17.0476 3.98036 16.2778 3.65026 15.4302C3.32015 14.5825 3.16988 13.6755 3.20897 12.7667C3.24807 11.8579 3.47568 10.9671 3.87735 10.1509C4.27903 9.33475 4.846 8.611 5.54228 8.02561C6.23856 7.44022 7.04893 7.00598 7.92196 6.75045C8.795 6.49492 9.71162 6.42369 10.6136 6.54127C11.5157 6.65885 12.3834 6.96267 13.1618 7.43346C13.9401 7.90424 14.6121 8.53171 15.1351 9.27602C15.402 9.65549 15.7562 9.96525 16.1678 10.1792C16.5795 10.3931 17.0365 10.505 17.5005 10.5054H17.5019C17.9659 10.5045 18.4229 10.3922 18.8345 10.1781C19.2462 9.96388 19.6003 9.65404 19.8674 9.27456C20.0842 8.96604 20.3272 8.67671 20.5936 8.40977C21.8243 7.17905 23.4935 6.48765 25.234 6.48765C26.9745 6.48765 28.6437 7.17905 29.8744 8.40977C31.1052 9.64048 31.7966 11.3097 31.7966 13.0502C31.7966 14.7907 31.1052 16.4599 29.8744 17.6906Z" fill="#1D1D35"/>
<path d="M26.6559 8.1458C26.4699 8.08514 26.2737 8.06252 26.0788 8.07927C25.8839 8.09603 25.6943 8.15182 25.5215 8.24333C25.3486 8.33485 25.1959 8.4602 25.0724 8.61194C24.949 8.76369 24.8573 8.93871 24.8029 9.1266C24.7485 9.3145 24.7324 9.51141 24.7557 9.70564C24.779 9.89986 24.8411 10.0874 24.9383 10.2572C25.0355 10.4269 25.1659 10.5753 25.3217 10.6936C25.4775 10.8119 25.6555 10.8977 25.8451 10.9458C26.2179 11.0557 26.555 11.2625 26.8219 11.545C27.0888 11.8276 27.2761 12.1758 27.3647 12.5543C27.4382 12.8758 27.6185 13.1629 27.8763 13.3687C28.134 13.5745 28.4538 13.6869 28.7836 13.6875C28.894 13.688 29.0041 13.6758 29.1117 13.651C29.2984 13.608 29.4747 13.5287 29.6307 13.4175C29.7866 13.3064 29.9192 13.1656 30.0208 13.0033C30.1223 12.8409 30.1909 12.6601 30.2226 12.4712C30.2543 12.2824 30.2485 12.0891 30.2055 11.9025C30.0012 11.0175 29.5647 10.203 28.9411 9.54275C28.3175 8.88248 27.5277 8.40029 26.6559 8.1458Z" fill="#4ABB82"/>
</g>
<defs>
<clipPath id="clip0_1_1473">
<rect width="35" height="35" fill="white" transform="translate(0.000488281 0.5625)"/>
</clipPath>
</defs>
</svg>
