<svg width="20" height="20" viewBox="0 0 20 20" fill="none" xmlns="http://www.w3.org/2000/svg">
<path fill-rule="evenodd" clip-rule="evenodd" d="M7.5 16.0813C4.58812 15.0507 2.5 12.2719 2.5 9.00879C2.5 4.86941 5.86062 1.50879 10 1.50879C14.1394 1.50879 17.5 4.86941 17.5 9.00879C17.5 11.3425 16.3625 13.7107 14.2244 15.1519C12.5975 16.2482 10.5906 17.5457 9.425 18.2938C9.04063 18.5407 8.55188 18.5582 8.15063 18.3388C7.74938 18.1194 7.5 17.6988 7.5 17.2419V16.0813ZM10.4919 11.3813V11.04C10.4919 10.03 11.0869 9.67066 11.5725 9.28566C12.1044 8.86378 12.5506 8.41692 12.6713 7.68379C12.8056 6.86629 12.6275 6.23504 12.3081 5.76254C11.83 5.05379 11.0031 4.69504 10.2744 4.64316C7.695 4.45879 7.08875 6.97129 7.08875 6.97129C7.00812 7.30692 7.21438 7.64442 7.55 7.72567C7.885 7.80629 8.22312 7.60004 8.30375 7.26441C8.30375 7.26441 8.66187 5.78066 10.185 5.89004C10.5706 5.91754 11.0194 6.08692 11.2725 6.46192C11.4406 6.71129 11.5087 7.04941 11.4375 7.48066C11.3937 7.74941 11.2375 7.92442 11.06 8.08629C10.8806 8.24879 10.6775 8.39629 10.4788 8.55817C9.83688 9.08192 9.24188 9.72191 9.24188 11.04V11.3794C9.24188 11.3794 9.2425 11.5038 9.28437 11.605C9.38375 11.8475 9.59625 12.0038 9.88188 12.0038C10.2088 12.0038 10.4719 11.7169 10.4881 11.45C10.49 11.4244 10.4919 11.3813 10.4919 11.3813ZM9.87125 12.6294C9.48375 12.6294 9.16875 12.9438 9.16875 13.3313C9.16875 13.7188 9.48375 14.0338 9.87125 14.0338C10.2588 14.0338 10.5737 13.7188 10.5737 13.3313C10.5737 12.9438 10.2588 12.6294 9.87125 12.6294Z" fill="white"/>
</svg>
