<svg width="20" height="21" viewBox="0 0 20 21" fill="none" xmlns="http://www.w3.org/2000/svg">
<g clip-path="url(#clip0_1_1585)">
<path d="M19.5659 9.66543C19.9596 9.28177 20.0985 8.7187 19.9287 8.19527C19.7585 7.67184 19.3152 7.29819 18.7705 7.2189L13.9279 6.51525C13.7217 6.48522 13.5435 6.35586 13.4514 6.16884L11.2864 1.78117C11.0433 1.28818 10.5499 0.981812 10 0.981812C9.45055 0.981812 8.95716 1.28818 8.71407 1.78117L6.54867 6.16924C6.45656 6.35626 6.27795 6.48562 6.0717 6.51565L1.22909 7.2193C0.684834 7.29819 0.241102 7.67224 0.0708973 8.19567C-0.0989065 8.7191 0.0400602 9.28217 0.433733 9.66583L3.93754 13.0811C4.08692 13.2269 4.1554 13.4368 4.12016 13.6418L3.29356 18.4644C3.22028 18.8889 3.33161 19.3018 3.60634 19.6274C4.03325 20.1348 4.77855 20.2894 5.37446 19.9762L9.70526 17.6991C9.88628 17.6042 10.1141 17.605 10.2948 17.6991L14.626 19.9762C14.8366 20.0871 15.0613 20.1432 15.2932 20.1432C15.7165 20.1432 16.1178 19.955 16.3937 19.6274C16.6688 19.3018 16.7797 18.8881 16.7065 18.4644L15.8795 13.6418C15.8442 13.4364 15.9127 13.2269 16.0621 13.0811L19.5659 9.66543Z" fill="white"/>
</g>
<defs>
<clipPath id="clip0_1_1585">
<rect width="20" height="20" fill="white" transform="translate(0 0.5625)"/>
</clipPath>
</defs>
</svg>
