<svg width="40" height="41" viewBox="0 0 40 41" fill="none" xmlns="http://www.w3.org/2000/svg">
<g clip-path="url(#clip0_1_1549)">
<path d="M30.6754 6.11588C30.8084 5.84823 30.7837 5.5155 30.6187 5.26729L27.7973 0.951771C27.5376 0.554586 27.005 0.442868 26.6078 0.70271C26.2106 0.962396 26.0991 1.49505 26.3588 1.89223L27.3311 3.37949C24.496 2.17348 21.3735 1.67481 18.2681 1.96177C13.943 2.36192 9.86682 4.27652 6.79043 7.35291C3.44264 10.7007 1.50398 15.1485 1.3314 19.8771C1.15976 24.5805 2.74491 29.1333 5.79481 32.6964C5.96481 32.8949 6.20567 32.9969 6.44809 32.9969C6.64574 32.9969 6.84449 32.929 7.00644 32.7903C7.36699 32.4817 7.4091 31.9392 7.10051 31.5786C1.38382 24.9 1.78147 14.7926 8.00573 8.56829C13.0177 3.55621 20.5691 2.25926 26.8713 5.05011L24.701 5.17073C24.2272 5.19714 23.8643 5.6026 23.8907 6.07651C23.9162 6.53416 24.2952 6.8883 24.748 6.88822C24.7641 6.88822 24.7802 6.88775 24.7965 6.88689L29.9502 6.60033C30.2555 6.58416 30.5457 6.39416 30.6754 6.11588Z" fill="#1D1D35"/>
<path d="M34.2055 8.42906C33.8969 8.06844 33.3544 8.02625 32.9938 8.335C32.6333 8.64359 32.5912 9.18609 32.8997 9.54663C38.6161 16.2253 38.2184 26.3326 31.9942 32.5567C26.9822 37.5688 19.4308 38.8658 13.1287 36.0749L15.2989 35.9543C15.7727 35.9279 16.1356 35.5224 16.1092 35.0485C16.0829 34.5746 15.678 34.2131 15.2034 34.2381L10.0497 34.5247C9.40707 34.5419 9.0102 35.3324 9.38129 35.8579L12.2026 40.1734C12.3674 40.4256 12.6423 40.5625 12.9227 40.5625C13.0839 40.5625 13.247 40.5172 13.3921 40.4224C13.7894 40.1627 13.9009 39.6301 13.6412 39.2328L12.6695 37.7465C14.9811 38.7297 17.4837 39.2425 20.0124 39.2425C20.5848 39.2425 21.1586 39.2162 21.7318 39.1632C26.0569 38.763 30.1331 36.8484 33.2095 33.772C36.5572 30.4242 38.496 25.9765 38.6685 21.248C38.8403 16.5447 37.2553 11.9922 34.2055 8.42906Z" fill="#1D1D35"/>
<path d="M28.0466 21.7229H27.1116V14.4406C27.1116 14.0811 26.8192 13.7887 26.4597 13.7887H25.1853C24.9649 13.7887 24.7612 13.8987 24.6401 14.0831L19.3042 22.2196C19.0471 22.6116 19.0267 23.0918 19.2494 23.5042C19.4721 23.9166 19.8849 24.1629 20.3537 24.1629H24.6716V26.6847C24.6716 27.0442 24.964 27.3366 25.3234 27.3366H26.4597C26.8192 27.3366 27.1116 27.0442 27.1116 26.6847V24.1629H28.0466C28.4061 24.1629 28.6985 23.8704 28.6985 23.511V22.3747C28.6986 22.0154 28.4061 21.7229 28.0466 21.7229ZM24.6716 18.6411V21.7229H22.6506L24.6716 18.6411Z" fill="#4ABB82"/>
<path d="M18.2896 19.3874C18.4128 19.2644 18.4806 19.1006 18.4806 18.9265V14.4406C18.4806 14.0811 18.1882 13.7887 17.8287 13.7887H11.9533C11.5938 13.7887 11.3014 14.0811 11.3014 14.4406V17.1638C11.3014 17.5232 11.5938 17.8156 11.9533 17.8156H13.0681C13.4276 17.8156 13.72 17.5232 13.72 17.1638V16.2369H16.0404V18.7556L11.4913 23.3254C11.3688 23.4485 11.3013 23.6118 11.3013 23.7854V26.6848C11.3013 27.0442 11.5938 27.3367 11.9532 27.3367H17.8286C18.1881 27.3367 18.4805 27.0442 18.4805 26.6848V25.5484C18.4805 25.1889 18.1881 24.8965 17.8286 24.8965H13.72V23.9569L18.2896 19.3874Z" fill="#4ABB82"/>
</g>
<defs>
<clipPath id="clip0_1_1549">
<rect width="40" height="40" fill="white" transform="translate(0 0.5625)"/>
</clipPath>
</defs>
</svg>
