<svg width="40" height="41" viewBox="0 0 40 41" fill="none" xmlns="http://www.w3.org/2000/svg">
<path d="M39.1406 28.5699H0.859375C0.384766 28.5699 0 28.1852 0 27.7106C0 27.236 0.384766 26.8512 0.859375 26.8512H39.1406C39.6152 26.8512 40 27.236 40 27.7106C40 28.1852 39.6152 28.5699 39.1406 28.5699Z" fill="#4ABB82"/>
<path d="M36.758 3.02466H3.32148C1.52102 3.02466 0 4.50927 0 6.26661V30.0931C0 31.8504 1.52102 33.3351 3.32148 33.3351H16.758V36.3817H12.852C12.3774 36.3817 11.9927 36.7665 11.9927 37.2411C11.9927 37.7157 12.3774 38.1004 12.852 38.1004H27.1479C27.6225 38.1004 28.0073 37.7157 28.0073 37.2411C28.0073 36.7665 27.6225 36.3817 27.1479 36.3817H23.242V33.3352H36.7579C38.5455 33.3352 39.9999 31.8808 39.9999 30.0932V6.26661C40 4.47896 38.5456 3.02466 36.758 3.02466ZM21.5233 36.3817H18.4767V33.3352H21.5233V36.3817ZM38.2812 30.0932C38.2812 30.9331 37.5979 31.6165 36.758 31.6165H3.32148C2.45266 31.6165 1.71875 30.9188 1.71875 30.0932V6.26661C1.71875 5.44091 2.45266 4.74333 3.32148 4.74333H36.758C37.5979 4.74333 38.2812 5.42669 38.2812 6.26661V30.0932Z" fill="#1D1D35"/>
<path d="M15.9325 23.4455C16.0374 23.3016 16.0936 23.1232 16.0941 22.9452V8.64929C16.1028 8.18577 15.6922 7.77835 15.2289 7.78991H5.70989C5.24661 7.77843 4.83614 8.18585 4.84474 8.64929V22.9452C4.83614 23.4062 5.24325 23.8139 5.70458 23.8046H15.2343C15.5067 23.8058 15.776 23.6691 15.9325 23.4455ZM9.43661 15.7973L6.56349 20.1069V11.4876L9.43661 15.7973ZM7.30989 9.50866H13.629L10.4694 14.248L7.30989 9.50866ZM10.4694 17.3465L13.629 22.0858H7.30989L10.4694 17.3465ZM11.5022 15.7973L14.3754 11.4876V20.1069L11.5022 15.7973Z" fill="#4ABB82"/>
<path d="M34.2959 14.274H20C19.5254 14.274 19.1406 13.8892 19.1406 13.4146V8.64929C19.1406 8.17468 19.5254 7.78992 20 7.78992H34.2959C34.7705 7.78992 35.1553 8.17468 35.1553 8.64929V13.4146C35.1553 13.8892 34.7705 14.274 34.2959 14.274ZM20.8594 12.5552H33.4366V9.50867H20.8594V12.5552Z" fill="#1D1D35"/>
<path d="M24.7653 23.8046H20C19.5254 23.8046 19.1406 23.4199 19.1406 22.9452V18.1799C19.1406 17.7053 19.5254 17.3206 20 17.3206H24.7653C25.2399 17.3206 25.6247 17.7053 25.6247 18.1799V22.9452C25.6247 23.4199 25.2399 23.8046 24.7653 23.8046ZM20.8594 22.0859H23.9059V19.0393H20.8594V22.0859Z" fill="#1D1D35"/>
<path d="M34.296 23.8046H29.5306C29.056 23.8046 28.6713 23.4199 28.6713 22.9452V18.1799C28.6713 17.7053 29.056 17.3206 29.5306 17.3206H34.296C34.7706 17.3206 35.1553 17.7053 35.1553 18.1799V22.9452C35.1553 23.4199 34.7706 23.8046 34.296 23.8046ZM30.39 22.0859H33.4366V19.0393H30.39V22.0859Z" fill="#1D1D35"/>
</svg>
