<svg width="21" height="21" viewBox="0 0 21 21" fill="none" xmlns="http://www.w3.org/2000/svg">
<path d="M17.6826 20.0898H14.1826C13.387 20.0898 12.6239 19.7738 12.0613 19.2112C11.4987 18.6486 11.1826 17.8855 11.1826 17.0898V11.5898C11.1826 11.3246 11.288 11.0703 11.4755 10.8827C11.663 10.6952 11.9174 10.5898 12.1826 10.5898H17.6826C18.4783 10.5898 19.2413 10.9059 19.8039 11.4685C20.3665 12.0311 20.6826 12.7942 20.6826 13.5898V17.0898C20.6826 17.8855 20.3665 18.6486 19.8039 19.2112C19.2413 19.7738 18.4783 20.0898 17.6826 20.0898ZM13.1826 12.5898V17.0898C13.1826 17.3551 13.288 17.6094 13.4755 17.797C13.663 17.9845 13.9174 18.0898 14.1826 18.0898H17.6826C17.9478 18.0898 18.2022 17.9845 18.3897 17.797C18.5773 17.6094 18.6826 17.3551 18.6826 17.0898V13.5898C18.6826 13.3246 18.5773 13.0703 18.3897 12.8827C18.2022 12.6952 17.9478 12.5898 17.6826 12.5898H13.1826Z" fill="#4ABB82"/>
<path d="M9.18262 9.58984H3.68262C2.88697 9.58984 2.12391 9.27377 1.5613 8.71116C0.998688 8.14856 0.682617 7.38549 0.682617 6.58984V3.08984C0.682617 2.29419 0.998688 1.53113 1.5613 0.968524C2.12391 0.405914 2.88697 0.0898438 3.68262 0.0898438H7.18262C7.97827 0.0898438 8.74133 0.405914 9.30394 0.968524C9.86655 1.53113 10.1826 2.29419 10.1826 3.08984V8.58984C10.1826 8.85506 10.0773 9.10941 9.88972 9.29695C9.70219 9.48449 9.44783 9.58984 9.18262 9.58984ZM3.68262 2.08984C3.4174 2.08984 3.16305 2.1952 2.97551 2.38274C2.78797 2.57027 2.68262 2.82463 2.68262 3.08984V6.58984C2.68262 6.85506 2.78797 7.10941 2.97551 7.29695C3.16305 7.48449 3.4174 7.58984 3.68262 7.58984H8.18262V3.08984C8.18262 2.82463 8.07726 2.57027 7.88972 2.38274C7.70219 2.1952 7.44783 2.08984 7.18262 2.08984H3.68262Z" fill="#1D1D35"/>
<path d="M17.6826 9.58984H12.1826C11.9174 9.58984 11.663 9.48449 11.4755 9.29695C11.288 9.10941 11.1826 8.85506 11.1826 8.58984V3.08984C11.1826 2.29419 11.4987 1.53113 12.0613 0.968524C12.6239 0.405914 13.387 0.0898438 14.1826 0.0898438H17.6826C18.4783 0.0898438 19.2413 0.405914 19.8039 0.968524C20.3665 1.53113 20.6826 2.29419 20.6826 3.08984V6.58984C20.6826 7.38549 20.3665 8.14856 19.8039 8.71116C19.2413 9.27377 18.4783 9.58984 17.6826 9.58984ZM13.1826 7.58984H17.6826C17.9478 7.58984 18.2022 7.48449 18.3897 7.29695C18.5773 7.10941 18.6826 6.85506 18.6826 6.58984V3.08984C18.6826 2.82463 18.5773 2.57027 18.3897 2.38274C18.2022 2.1952 17.9478 2.08984 17.6826 2.08984H14.1826C13.9174 2.08984 13.663 2.1952 13.4755 2.38274C13.288 2.57027 13.1826 2.82463 13.1826 3.08984V7.58984Z" fill="#1D1D35"/>
<path d="M7.18262 20.0898H3.68262C2.88697 20.0898 2.12391 19.7738 1.5613 19.2112C0.998688 18.6486 0.682617 17.8855 0.682617 17.0898V13.5898C0.682617 12.7942 0.998688 12.0311 1.5613 11.4685C2.12391 10.9059 2.88697 10.5898 3.68262 10.5898H9.18262C9.44783 10.5898 9.70219 10.6952 9.88972 10.8827C10.0773 11.0703 10.1826 11.3246 10.1826 11.5898V17.0898C10.1826 17.8855 9.86655 18.6486 9.30394 19.2112C8.74133 19.7738 7.97827 20.0898 7.18262 20.0898ZM3.68262 12.5898C3.4174 12.5898 3.16305 12.6952 2.97551 12.8827C2.78797 13.0703 2.68262 13.3246 2.68262 13.5898V17.0898C2.68262 17.3551 2.78797 17.6094 2.97551 17.797C3.16305 17.9845 3.4174 18.0898 3.68262 18.0898H7.18262C7.44783 18.0898 7.70219 17.9845 7.88972 17.797C8.07726 17.6094 8.18262 17.3551 8.18262 17.0898V12.5898H3.68262Z" fill="#1D1D35"/>
</svg>
