<svg width="19" height="21" viewBox="0 0 19 21" fill="none" xmlns="http://www.w3.org/2000/svg">
<path d="M4.80435 20.0897C4.3566 20.0927 3.91411 19.9931 3.51086 19.7985C3.10761 19.6038 2.75434 19.3194 2.47817 18.9669C2.202 18.6144 2.01029 18.2034 1.91775 17.7653C1.82521 17.3272 1.83431 16.8737 1.94435 16.4397L3.20435 11.4397C3.23159 11.3079 3.28515 11.1829 3.36183 11.0723C3.43851 10.9617 3.53672 10.8678 3.65059 10.796C3.76446 10.7243 3.89163 10.6763 4.0245 10.6548C4.15737 10.6334 4.29319 10.639 4.42383 10.6714C4.55448 10.7037 4.67725 10.762 4.7848 10.843C4.89235 10.9239 4.98246 11.0256 5.04974 11.1422C5.11702 11.2588 5.16007 11.3877 5.17633 11.5213C5.19259 11.6549 5.18171 11.7904 5.14435 11.9197L3.88435 16.9197C3.86022 17.0572 3.86516 17.1983 3.89885 17.3338C3.93254 17.4693 3.99423 17.5962 4.07995 17.7064C4.16568 17.8167 4.27353 17.9077 4.39657 17.9737C4.51961 18.0397 4.65512 18.0792 4.79435 18.0897C5.00644 18.0911 5.21276 18.0207 5.37978 17.89C5.54681 17.7592 5.66472 17.5759 5.71435 17.3697L7.08435 11.8997C7.11159 11.7679 7.16515 11.6429 7.24183 11.5323C7.31851 11.4217 7.41672 11.3278 7.53059 11.256C7.64446 11.1843 7.77163 11.1363 7.9045 11.1148C8.03737 11.0934 8.17319 11.099 8.30383 11.1314C8.43448 11.1637 8.55725 11.222 8.6648 11.303C8.77235 11.3839 8.86246 11.4856 8.92974 11.6022C8.99702 11.7188 9.04007 11.8477 9.05633 11.9813C9.07259 12.1149 9.06171 12.2504 9.02435 12.3797L7.65435 17.8597C7.4868 18.491 7.11782 19.0503 6.60344 19.4528C6.08906 19.8553 5.45739 20.0789 4.80435 20.0897Z" fill="#4ABB82"/>
<path d="M6.40413 12.6996H4.72412C3.45894 12.6425 2.26449 12.0998 1.38938 11.1843C0.514258 10.2688 0.0258789 9.0511 0.0258789 7.78463C0.0258789 6.51816 0.514258 5.30046 1.38938 4.38497C2.26449 3.46948 3.45894 2.92671 4.72412 2.86963H6.40413C6.66934 2.86963 6.9237 2.97499 7.11123 3.16252C7.29877 3.35006 7.40413 3.60441 7.40413 3.86963V11.6996C7.40413 11.9648 7.29877 12.2192 7.11123 12.4067C6.9237 12.5943 6.66934 12.6996 6.40413 12.6996ZM4.72412 4.86963C3.98054 4.9132 3.28171 5.23929 2.77065 5.78118C2.25959 6.32306 1.97493 7.03976 1.97493 7.78463C1.97493 8.52949 2.25959 9.2462 2.77065 9.78808C3.28171 10.33 3.98054 10.6561 4.72412 10.6996H5.40413V4.86963H4.72412Z" fill="#1D1D35"/>
<path d="M15.3143 15.4797C14.91 15.4778 14.5097 15.3997 14.1343 15.2497C13.3343 14.9297 12.4943 14.6197 11.6243 14.3197C9.83427 13.6897 7.97427 13.1397 6.11427 12.6697C5.89425 12.613 5.70009 12.4831 5.56377 12.3013C5.42745 12.1195 5.35708 11.8968 5.36427 11.6697V3.86967C5.35708 3.64258 5.42745 3.41981 5.56377 3.23804C5.70009 3.05628 5.89425 2.92636 6.11427 2.86967C7.96427 2.39967 9.82427 1.86967 11.6243 1.21967C12.4943 0.919667 13.3343 0.599667 14.1343 0.289667C14.6234 0.0976903 15.1521 0.0279624 15.6743 0.0865323C16.1965 0.145102 16.6965 0.330201 17.131 0.625772C17.5655 0.921343 17.9213 1.31846 18.1676 1.78267C18.4139 2.24689 18.5432 2.76417 18.5443 3.28967V12.1997C18.5433 12.7282 18.4135 13.2485 18.1661 13.7155C17.9186 14.1825 17.561 14.5821 17.1243 14.8797C16.5959 15.259 15.9646 15.4683 15.3143 15.4797ZM7.36427 10.9197C9.02427 11.3597 10.6743 11.8697 12.2843 12.4297C13.1743 12.7397 14.0443 13.0597 14.8743 13.4297C15.0581 13.5059 15.2584 13.534 15.4561 13.5112C15.6539 13.4885 15.8425 13.4157 16.0043 13.2997C16.1693 13.1899 16.3048 13.0414 16.399 12.867C16.4931 12.6926 16.543 12.4978 16.5443 12.2997V3.32967C16.5405 3.13201 16.4895 2.93811 16.3956 2.76416C16.3016 2.59021 16.1675 2.44123 16.0043 2.32967C15.8405 2.21786 15.6516 2.14837 15.4544 2.12743C15.2572 2.10649 15.0579 2.13475 14.8743 2.20967C14.0443 2.53967 13.1743 2.85967 12.2843 3.20967C10.6643 3.76967 9.01427 4.27967 7.36427 4.70967V10.9197Z" fill="#1D1D35"/>
</svg>
