<svg width="45" height="45" viewBox="0 0 45 45" fill="none" xmlns="http://www.w3.org/2000/svg">
<path d="M12.4164 21.7297C10.5127 21.7297 8.65185 21.1652 7.06902 20.1076C5.4862 19.05 4.25254 17.5468 3.52405 15.7881C2.79555 14.0293 2.60495 12.0941 2.97633 10.227C3.34771 8.35993 4.2644 6.64492 5.61048 5.29884C6.95656 3.95276 8.67157 3.03607 10.5386 2.66468C12.4057 2.2933 14.341 2.48391 16.0997 3.2124C17.8585 3.94089 19.3617 5.17455 20.4193 6.75738C21.4769 8.3402 22.0414 10.2011 22.0414 12.1047C22.0385 14.6566 21.0235 17.103 19.2191 18.9074C17.4147 20.7118 14.9682 21.7268 12.4164 21.7297ZM12.4164 5.22974C11.0566 5.22974 9.72743 5.63295 8.59684 6.38839C7.46625 7.14382 6.58507 8.21755 6.06471 9.47379C5.54436 10.73 5.40821 12.1124 5.67349 13.446C5.93876 14.7796 6.59354 16.0046 7.55503 16.9661C8.51651 17.9276 9.74152 18.5824 11.0751 18.8476C12.4088 19.1129 13.7911 18.9768 15.0473 18.4564C16.3036 17.9361 17.3773 17.0549 18.1327 15.9243C18.8882 14.7937 19.2914 13.4645 19.2914 12.1047C19.2894 10.282 18.5645 8.53442 17.2756 7.24553C15.9867 5.95663 14.2392 5.23168 12.4164 5.22974Z" fill="#4ABB82"/>
<path d="M15.1664 41.8963H7.83305C6.49636 41.8949 5.21484 41.3632 4.26966 40.418C3.32448 39.4729 2.79284 38.1913 2.79138 36.8547V29.5213C2.79284 28.1846 3.32448 26.9031 4.26966 25.9579C5.21484 25.0128 6.49636 24.4811 7.83305 24.4797H15.1664C16.5031 24.4811 17.7846 25.0128 18.7298 25.9579C19.675 26.9031 20.2066 28.1846 20.208 29.5213V36.8547C20.2066 38.1913 19.675 39.4729 18.7298 40.418C17.7846 41.3632 16.5031 41.8949 15.1664 41.8963ZM7.83305 27.2297C7.22541 27.2301 6.6428 27.4717 6.21313 27.9014C5.78347 28.3311 5.54187 28.9137 5.54138 29.5213V36.8547C5.54187 37.4623 5.78347 38.0449 6.21313 38.4746C6.6428 38.9042 7.22541 39.1458 7.83305 39.1463H15.1664C15.774 39.1458 16.3566 38.9042 16.7863 38.4746C17.216 38.0449 17.4576 37.4623 17.458 36.8547V29.5213C17.4576 28.9137 17.216 28.3311 16.7863 27.9014C16.3566 27.4717 15.774 27.2301 15.1664 27.2297H7.83305ZM37.1664 41.8963H29.833C28.4964 41.8949 27.2148 41.3632 26.2697 40.418C25.3245 39.4729 24.7928 38.1913 24.7914 36.8547V29.5213C24.7928 28.1846 25.3245 26.9031 26.2697 25.9579C27.2148 25.0128 28.4964 24.4811 29.833 24.4797H37.1664C38.5031 24.4811 39.7846 25.0128 40.7298 25.9579C41.675 26.9031 42.2066 28.1846 42.208 29.5213V36.8547C42.2066 38.1913 41.675 39.4729 40.7298 40.418C39.7846 41.3632 38.5031 41.8949 37.1664 41.8963ZM29.833 27.2297C29.2254 27.2301 28.6428 27.4717 28.2131 27.9014C27.7835 28.3311 27.5419 28.9137 27.5414 29.5213V36.8547C27.5419 37.4623 27.7835 38.0449 28.2131 38.4746C28.6428 38.9042 29.2254 39.1458 29.833 39.1463H37.1664C37.774 39.1458 38.3566 38.9042 38.7863 38.4746C39.216 38.0449 39.4576 37.4623 39.458 36.8547V29.5213C39.4576 28.9137 39.216 28.3311 38.7863 27.9014C38.3566 27.4717 37.774 27.2301 37.1664 27.2297H29.833ZM37.1664 21.7297H29.833C28.4964 21.7282 27.2148 21.1966 26.2697 20.2514C25.3245 19.3062 24.7928 18.0247 24.7914 16.688V9.35466C24.7928 8.01797 25.3245 6.73645 26.2697 5.79127C27.2148 4.84609 28.4964 4.31444 29.833 4.31299H37.1664C38.5031 4.31444 39.7846 4.84609 40.7298 5.79127C41.675 6.73645 42.2066 8.01797 42.208 9.35466V16.688C42.2066 18.0247 41.675 19.3062 40.7298 20.2514C39.7846 21.1966 38.5031 21.7282 37.1664 21.7297ZM29.833 7.06299C29.2254 7.06347 28.6428 7.30507 28.2131 7.73474C27.7835 8.1644 27.5419 8.74702 27.5414 9.35466V16.688C27.5419 17.2956 27.7835 17.8782 28.2131 18.3079C28.6428 18.7376 29.2254 18.9792 29.833 18.9797H37.1664C37.774 18.9792 38.3566 18.7376 38.7863 18.3079C39.216 17.8782 39.4576 17.2956 39.458 16.688V9.35466C39.4576 8.74702 39.216 8.1644 38.7863 7.73474C38.3566 7.30507 37.774 7.06347 37.1664 7.06299H29.833Z" fill="#1D1D35"/>
</svg>
