<svg width="35" height="36" viewBox="0 0 35 36" fill="none" xmlns="http://www.w3.org/2000/svg">
<path d="M25.3458 29.7292H9.65415C8.65168 29.7315 7.67882 29.3894 6.89836 28.7603C6.11789 28.1311 5.57716 27.253 5.36665 26.2729L2.81456 14.3583C2.63918 13.6085 2.70573 12.8224 3.00468 12.1127C3.30364 11.403 3.81963 10.8062 4.47868 10.4078C5.13774 10.0095 5.906 9.83005 6.67332 9.89526C7.44064 9.96047 8.1676 10.267 8.74998 10.7708L11.3604 12.9875L14.4666 8.32083C14.7973 7.8184 15.2476 7.40597 15.777 7.12058C16.3065 6.83519 16.8985 6.68579 17.5 6.68579C18.1014 6.68579 18.6935 6.83519 19.2229 7.12058C19.7524 7.40597 20.2027 7.8184 20.5333 8.32083L23.6396 12.9875L26.25 10.7708C26.8329 10.2811 27.5544 9.9862 28.3134 9.92738C29.0725 9.86856 29.8308 10.0488 30.4822 10.4429C31.1336 10.8369 31.6453 11.425 31.9455 12.1245C32.2457 12.8241 32.3194 13.6002 32.1562 14.3437L29.6041 26.2583C29.3976 27.2363 28.8624 28.114 28.0877 28.7455C27.3129 29.3769 26.3453 29.7241 25.3458 29.7292ZM6.38748 12.8562C6.25208 12.8551 6.11964 12.8958 6.00831 12.9729C5.88556 13.0429 5.78745 13.1492 5.72741 13.2771C5.66736 13.405 5.64832 13.5483 5.6729 13.6875L8.22498 25.6021C8.29613 25.9337 8.48068 26.2302 8.74685 26.4405C9.01303 26.6508 9.34418 26.7617 9.68331 26.7542H25.3458C25.6849 26.7617 26.0161 26.6508 26.2823 26.4405C26.5485 26.2302 26.733 25.9337 26.8041 25.6021L29.3271 13.6875C29.3597 13.5388 29.345 13.3836 29.2849 13.2437C29.2249 13.1037 29.1225 12.9861 28.9923 12.9073C28.862 12.8285 28.7103 12.7925 28.5585 12.8042C28.4067 12.816 28.2624 12.875 28.1458 12.9729L25.5208 15.175C25.2056 15.4368 24.8389 15.6292 24.4444 15.7397C24.0499 15.8503 23.6365 15.8765 23.2312 15.8167C22.8255 15.7585 22.4365 15.6154 22.0897 15.3968C21.743 15.1782 21.4462 14.8889 21.2187 14.5479L18.1125 9.88124C18.0464 9.77891 17.9557 9.69477 17.8487 9.6365C17.7417 9.57824 17.6218 9.54771 17.5 9.54771C17.3782 9.54771 17.2583 9.57824 17.1513 9.6365C17.0443 9.69477 16.9536 9.77891 16.8875 9.88124L13.7812 14.6062C13.5538 14.9473 13.257 15.2365 12.9102 15.4551C12.5635 15.6738 12.1745 15.8168 11.7687 15.875C11.3634 15.9348 10.9501 15.9086 10.5556 15.7981C10.1611 15.6875 9.79431 15.4951 9.47915 15.2333L6.85415 13.0312C6.72463 12.9188 6.559 12.8567 6.38748 12.8562Z" fill="#1D1D35"/>
<path d="M17.5 23.8958C19.1108 23.8958 20.4166 22.59 20.4166 20.9792C20.4166 19.3683 19.1108 18.0625 17.5 18.0625C15.8891 18.0625 14.5833 19.3683 14.5833 20.9792C14.5833 22.59 15.8891 23.8958 17.5 23.8958Z" fill="#4ABB82"/>
</svg>
