<svg width="142" height="99" viewBox="0 0 142 99" fill="none" xmlns="http://www.w3.org/2000/svg">
<path d="M80 60.5586C80 50.1586 81.6 41.2253 84.8 33.7586C88 26.0253 92.1333 19.7586 97.2 14.9586C102.267 9.89193 108 6.29193 114.4 4.15859C121.067 1.75859 127.6 0.558594 134 0.558594V14.5586C127.067 14.5586 120.533 16.9586 114.4 21.7586C108.533 26.2919 105.067 32.5586 104 40.5586C104.8 40.2919 105.733 40.0253 106.8 39.7586C107.6 39.4919 108.533 39.2253 109.6 38.9586C110.933 38.6919 112.4 38.5586 114 38.5586C122 38.5586 128.667 41.6253 134 47.7586C139.333 53.6253 142 60.5586 142 68.5586C142 76.5586 139.2 83.6253 133.6 89.7586C128.267 95.6253 121.067 98.5586 112 98.5586C101.867 98.5586 94 94.8253 88.4 87.3586C82.8 79.6253 80 70.6919 80 60.5586ZM0 60.5586C0 50.1586 1.6 41.2253 4.8 33.7586C8 26.0253 12.1333 19.7586 17.2 14.9586C22.2667 9.89193 28 6.29193 34.4 4.15859C41.0667 1.75859 47.6 0.558594 54 0.558594V14.5586C47.0667 14.5586 40.5333 16.9586 34.4 21.7586C28.5333 26.2919 25.0667 32.5586 24 40.5586C24.8 40.2919 25.7333 40.0253 26.8 39.7586C27.6 39.4919 28.5333 39.2253 29.6 38.9586C30.9333 38.6919 32.4 38.5586 34 38.5586C42 38.5586 48.6667 41.6253 54 47.7586C59.3333 53.6253 62 60.5586 62 68.5586C62 76.5586 59.2 83.6253 53.6 89.7586C48.2667 95.6253 41.0667 98.5586 32 98.5586C21.8667 98.5586 14 94.8253 8.4 87.3586C2.8 79.6253 0 70.6919 0 60.5586Z" fill="url(#paint0_linear_1_1143)"/>
<defs>
<linearGradient id="paint0_linear_1_1143" x1="71" y1="0.558594" x2="71" y2="98.5586" gradientUnits="userSpaceOnUse">
<stop stop-color="#DCFCE7"/>
<stop offset="1" stop-color="#DCFCE7" stop-opacity="0"/>
</linearGradient>
</defs>
</svg>
