<svg width="18" height="21" viewBox="0 0 18 21" fill="none" xmlns="http://www.w3.org/2000/svg">
<path d="M14.998 20.0898H2.99805C2.2024 20.0898 1.43934 19.7738 0.876727 19.2112C0.314117 18.6486 -0.00195312 17.8855 -0.00195312 17.0898V3.08984C-0.00195312 2.29419 0.314117 1.53113 0.876727 0.968524C1.43934 0.405914 2.2024 0.0898438 2.99805 0.0898438H14.998C15.7937 0.0898438 16.5568 0.405914 17.1194 0.968524C17.682 1.53113 17.998 2.29419 17.998 3.08984V17.0898C17.998 17.8855 17.682 18.6486 17.1194 19.2112C16.5568 19.7738 15.7937 20.0898 14.998 20.0898ZM2.99805 2.08984C2.73283 2.08984 2.47848 2.1952 2.29094 2.38274C2.1034 2.57027 1.99805 2.82463 1.99805 3.08984V17.0898C1.99805 17.3551 2.1034 17.6094 2.29094 17.797C2.47848 17.9845 2.73283 18.0898 2.99805 18.0898H14.998C15.2633 18.0898 15.5176 17.9845 15.7052 17.797C15.8927 17.6094 15.998 17.3551 15.998 17.0898V3.08984C15.998 2.82463 15.8927 2.57027 15.7052 2.38274C15.5176 2.1952 15.2633 2.08984 14.998 2.08984H2.99805Z" fill="#1D1D35"/>
<path d="M12.998 10.0898H4.99805C4.73283 10.0898 4.47848 9.98449 4.29094 9.79695C4.1034 9.60941 3.99805 9.35506 3.99805 9.08984C3.99805 8.82463 4.1034 8.57027 4.29094 8.38274C4.47848 8.1952 4.73283 8.08984 4.99805 8.08984H12.998C13.2633 8.08984 13.5176 8.1952 13.7052 8.38274C13.8927 8.57027 13.998 8.82463 13.998 9.08984C13.998 9.35506 13.8927 9.60941 13.7052 9.79695C13.5176 9.98449 13.2633 10.0898 12.998 10.0898Z" fill="#1D1D35"/>
<path d="M9.99805 6.08984H4.99805C4.73283 6.08984 4.47848 5.98449 4.29094 5.79695C4.1034 5.60941 3.99805 5.35506 3.99805 5.08984C3.99805 4.82463 4.1034 4.57027 4.29094 4.38274C4.47848 4.1952 4.73283 4.08984 4.99805 4.08984H9.99805C10.2633 4.08984 10.5176 4.1952 10.7052 4.38274C10.8927 4.57027 10.998 4.82463 10.998 5.08984C10.998 5.35506 10.8927 5.60941 10.7052 5.79695C10.5176 5.98449 10.2633 6.08984 9.99805 6.08984Z" fill="#1D1D35"/>
<path d="M7.99825 16.09H7.83825C7.68259 16.0639 7.5353 16.0014 7.40843 15.9076C7.28155 15.8137 7.17869 15.6912 7.10825 15.55L6.72825 14.79L5.72825 15.79C5.63501 15.8832 5.52432 15.9572 5.4025 16.0076C5.28068 16.0581 5.15011 16.084 5.01825 16.084C4.88639 16.084 4.75582 16.0581 4.634 16.0076C4.51218 15.9572 4.40149 15.8832 4.30825 15.79C4.21501 15.6967 4.14105 15.586 4.09059 15.4642C4.04013 15.3424 4.01416 15.2118 4.01416 15.08C4.01416 14.9481 4.04013 14.8175 4.09059 14.6957C4.14105 14.5739 4.21501 14.4632 4.30825 14.37L6.30825 12.37C6.42058 12.2575 6.55809 12.1734 6.70939 12.1247C6.86069 12.0761 7.02142 12.0641 7.17825 12.09C7.33391 12.116 7.4812 12.1785 7.60808 12.2723C7.73495 12.3662 7.83782 12.4887 7.90825 12.63L8.28825 13.39L9.28825 12.39C9.40058 12.2775 9.53809 12.1934 9.68939 12.1447C9.84069 12.0961 10.0014 12.0841 10.1583 12.11C10.3139 12.136 10.4612 12.1985 10.5881 12.2923C10.715 12.3862 10.8178 12.5087 10.8883 12.65L11.6183 14.09H12.9983C13.2635 14.09 13.5178 14.1953 13.7054 14.3828C13.8929 14.5704 13.9983 14.8247 13.9983 15.09C13.9983 15.3552 13.8929 15.6095 13.7054 15.7971C13.5178 15.9846 13.2635 16.09 12.9983 16.09H10.9983C10.8136 16.0894 10.6327 16.0377 10.4756 15.9406C10.3185 15.8435 10.1914 15.7049 10.1083 15.54L9.72825 14.78L8.72825 15.78C8.63414 15.8787 8.52084 15.9571 8.3953 16.0104C8.26976 16.0637 8.13464 16.0908 7.99825 16.09Z" fill="#4ABB82"/>
</svg>
