<svg width="40" height="40" viewBox="0 0 40 40" fill="none" xmlns="http://www.w3.org/2000/svg">
<path d="M27.1243 39.8988H13.0223C12.6576 39.8988 12.3079 39.7539 12.05 39.496C11.7921 39.2382 11.6473 38.8884 11.6473 38.5238V32.7414C11.6473 30.5067 12.535 28.3635 14.1152 26.7833C15.6954 25.2032 17.8386 24.3154 20.0733 24.3154C22.308 24.3154 24.4512 25.2032 26.0314 26.7833C27.6115 28.3635 28.4993 30.5067 28.4993 32.7414V38.5238C28.4993 38.8884 28.3544 39.2382 28.0965 39.496C27.8387 39.7539 27.4889 39.8988 27.1243 39.8988ZM14.3973 37.1488H25.7493V32.7414C25.7493 31.2361 25.1513 29.7923 24.0868 28.7279C23.0224 27.6634 21.5786 27.0654 20.0733 27.0654C18.5679 27.0654 17.1242 27.6634 16.0597 28.7279C14.9953 29.7923 14.3973 31.2361 14.3973 32.7414V37.1488Z" fill="#4ABB82"/>
<path d="M32.9066 39.8989H7.23991C5.90322 39.8974 4.6217 39.3658 3.67652 38.4206C2.73134 37.4754 2.1997 36.1939 2.19824 34.8572V19.7139C2.19824 19.3492 2.34311 18.9995 2.60097 18.7416C2.85883 18.4837 3.20857 18.3389 3.57324 18.3389C3.93791 18.3389 4.28765 18.4837 4.54551 18.7416C4.80338 18.9995 4.94824 19.3492 4.94824 19.7139V34.8572C4.94873 35.4648 5.19033 36.0475 5.61999 36.4771C6.04966 36.9068 6.63227 37.1484 7.23991 37.1489H32.9066C33.5142 37.1484 34.0968 36.9068 34.5265 36.4771C34.9562 36.0475 35.1978 35.4648 35.1982 34.8572V19.7139C35.1982 19.3492 35.3431 18.9995 35.601 18.7416C35.8588 18.4837 36.2086 18.3389 36.5732 18.3389C36.9379 18.3389 37.2877 18.4837 37.5455 18.7416C37.8034 18.9995 37.9482 19.3492 37.9482 19.7139V34.8572C37.9468 36.1939 37.4151 37.4754 36.47 38.4206C35.5248 39.3658 34.2433 39.8974 32.9066 39.8989Z" fill="#1D1D35"/>
<path d="M27.4066 21.5655C26.7196 21.5661 26.0398 21.4258 25.4092 21.1533C24.7785 20.8809 24.2104 20.4821 23.7399 19.9815C23.2692 20.4819 22.7011 20.8806 22.0705 21.1531C21.4399 21.4256 20.7602 21.5662 20.0733 21.5662C19.3863 21.5662 18.7066 21.4256 18.076 21.1531C17.4454 20.8806 16.8773 20.4819 16.4066 19.9815C15.9362 20.4815 15.3685 20.88 14.7383 21.1525C14.1082 21.425 13.4291 21.5658 12.7426 21.5661C12.056 21.5665 11.3767 21.4264 10.7463 21.1545C10.116 20.8827 9.54785 20.4847 9.07693 19.9852C8.95409 20.1154 8.82026 20.2419 8.68276 20.361C8.12261 20.8363 7.46601 21.1844 6.75828 21.3812C6.05055 21.5781 5.30853 21.6191 4.58343 21.5014C3.38557 21.2761 2.30566 20.6353 1.53394 19.6919C0.762233 18.7485 0.348247 17.5629 0.364926 16.3442V12.8572C0.365509 12.6439 0.415722 12.4336 0.511593 12.243L4.99593 3.27071C5.41177 2.43073 6.0548 1.72417 6.852 1.23126C7.64921 0.738355 8.56865 0.47885 9.50593 0.482213H30.6406C31.5777 0.478681 32.497 0.737913 33.2942 1.23048C34.0914 1.72306 34.7345 2.42924 35.1506 3.26888L39.6368 12.243C39.732 12.4338 39.7816 12.644 39.7816 12.8572V16.3442C39.7986 17.5626 39.385 18.7478 38.6136 19.691C37.8421 20.6341 36.7625 21.2746 35.5649 21.4995C34.8397 21.6188 34.0971 21.5787 33.3889 21.3821C32.6807 21.1855 32.0238 20.8371 31.4638 20.361C31.3264 20.2422 31.1948 20.1168 31.0696 19.9852C30.599 20.4844 30.0313 20.8821 29.4014 21.1538C28.7715 21.4256 28.0926 21.5657 27.4066 21.5655ZM3.11493 13.1817V16.3442C3.09453 16.9092 3.27368 17.4634 3.62096 17.9096C3.96825 18.3558 4.4615 18.6655 5.01426 18.7844C5.34626 18.8404 5.68647 18.8235 6.01128 18.7348C6.33609 18.6462 6.63772 18.4879 6.89526 18.271C7.14768 18.0554 7.35022 17.7874 7.48887 17.4858C7.62752 17.1841 7.69896 16.8559 7.69826 16.5239C7.69826 16.1592 7.84312 15.8095 8.10099 15.5516C8.35885 15.2937 8.70859 15.1489 9.07326 15.1489C9.43793 15.1489 9.78767 15.2937 10.0455 15.5516C10.3034 15.8095 10.4483 16.1592 10.4483 16.5239C10.4483 17.1317 10.6897 17.7146 11.1195 18.1443C11.5492 18.5741 12.1321 18.8155 12.7399 18.8155C13.3477 18.8155 13.9306 18.5741 14.3604 18.1443C14.7902 17.7146 15.0316 17.1317 15.0316 16.5239C15.0316 16.1592 15.1765 15.8095 15.4343 15.5516C15.6922 15.2937 16.0419 15.1489 16.4066 15.1489C16.7713 15.1489 17.121 15.2937 17.3789 15.5516C17.6367 15.8095 17.7816 16.1592 17.7816 16.5239C17.7816 17.1317 18.023 17.7146 18.4528 18.1443C18.8826 18.5741 19.4655 18.8155 20.0733 18.8155C20.681 18.8155 21.2639 18.5741 21.6937 18.1443C22.1235 17.7146 22.3649 17.1317 22.3649 16.5239C22.3649 16.1592 22.5098 15.8095 22.7677 15.5516C23.0255 15.2937 23.3753 15.1489 23.7399 15.1489C24.1046 15.1489 24.4543 15.2937 24.7122 15.5516C24.9701 15.8095 25.1149 16.1592 25.1149 16.5239C25.1149 17.1317 25.3564 17.7146 25.7861 18.1443C26.2159 18.5741 26.7988 18.8155 27.4066 18.8155C28.0144 18.8155 28.5973 18.5741 29.027 18.1443C29.4568 17.7146 29.6983 17.1317 29.6983 16.5239C29.6983 16.1592 29.8431 15.8095 30.101 15.5516C30.3589 15.2937 30.7086 15.1489 31.0733 15.1489C31.4379 15.1489 31.7877 15.2937 32.0455 15.5516C32.3034 15.8095 32.4483 16.1592 32.4483 16.5239C32.4475 16.8585 32.5201 17.1892 32.6609 17.4927C32.8018 17.7962 33.0076 18.0651 33.2636 18.2805C33.5197 18.4959 33.82 18.6524 34.1431 18.7392C34.4663 18.8259 34.8046 18.8407 35.1341 18.7825C35.6864 18.6636 36.1792 18.3542 36.5261 17.9083C36.873 17.4625 37.052 16.9088 37.0316 16.3442V13.1817L32.6903 4.49721C32.5009 4.11596 32.2085 3.79537 31.8462 3.57179C31.4839 3.34821 31.0663 3.23058 30.6406 3.23221H9.50593C9.08022 3.23058 8.66258 3.34821 8.30031 3.57179C7.93804 3.79537 7.64565 4.11596 7.45626 4.49721L3.11493 13.1817Z" fill="#1D1D35"/>
</svg>
