<svg width="20" height="19" viewBox="0 0 20 19" fill="none" xmlns="http://www.w3.org/2000/svg">
<path d="M10 8.08984H7C6.46957 8.08984 5.96086 7.87913 5.58579 7.50406C5.21071 7.12898 5 6.62028 5 6.08984V1.08984C5 0.824627 5.10536 0.570273 5.29289 0.382737C5.48043 0.195201 5.73478 0.0898438 6 0.0898438H11C11.2652 0.0898438 11.5196 0.195201 11.7071 0.382737C11.8946 0.570273 12 0.824627 12 1.08984V6.08984C12 6.62028 11.7893 7.12898 11.4142 7.50406C11.0391 7.87913 10.5304 8.08984 10 8.08984ZM7 2.08984V6.08984H10V2.08984H7Z" fill="#4ABB82"/>
<path d="M14.5 18.0898H2C1.46957 18.0898 0.960859 17.8791 0.585786 17.5041C0.210714 17.129 0 16.6203 0 16.0898V2.08984C0 1.55941 0.210714 1.0507 0.585786 0.67563C0.960859 0.300557 1.46957 0.0898438 2 0.0898438H14.5C15.163 0.0898438 15.7989 0.353236 16.2678 0.822077C16.7366 1.29092 17 1.9268 17 2.58984V15.5898C17 16.2529 16.7366 16.8888 16.2678 17.3576C15.7989 17.8265 15.163 18.0898 14.5 18.0898ZM2 2.08984V16.0898H14.5C14.6326 16.0898 14.7598 16.0372 14.8536 15.9434C14.9473 15.8496 15 15.7225 15 15.5898V2.58984C15 2.45724 14.9473 2.33006 14.8536 2.23629C14.7598 2.14252 14.6326 2.08984 14.5 2.08984H2Z" fill="#232323"/>
<path d="M17.5 18.0898H12C11.7348 18.0898 11.4804 17.9845 11.2929 17.797C11.1054 17.6094 11 17.3551 11 17.0898C11 16.8246 11.1054 16.5703 11.2929 16.3827C11.4804 16.1952 11.7348 16.0898 12 16.0898H17.5C17.6326 16.0898 17.7598 16.0372 17.8536 15.9434C17.9473 15.8496 18 15.7225 18 15.5898V2.58984C18 2.45724 17.9473 2.33006 17.8536 2.23629C17.7598 2.14252 17.6326 2.08984 17.5 2.08984H12C11.7348 2.08984 11.4804 1.98449 11.2929 1.79695C11.1054 1.60941 11 1.35506 11 1.08984C11 0.824627 11.1054 0.570273 11.2929 0.382737C11.4804 0.195201 11.7348 0.0898438 12 0.0898438H17.5C18.163 0.0898438 18.7989 0.353236 19.2678 0.822077C19.7366 1.29092 20 1.9268 20 2.58984V15.5898C20 16.2529 19.7366 16.8888 19.2678 17.3576C18.7989 17.8265 18.163 18.0898 17.5 18.0898Z" fill="#232323"/>
<path d="M12 14.0898H10C9.73478 14.0898 9.48043 13.9845 9.29289 13.797C9.10536 13.6094 9 13.3551 9 13.0898C9 12.8246 9.10536 12.5703 9.29289 12.3827C9.48043 12.1952 9.73478 12.0898 10 12.0898H12C12.2652 12.0898 12.5196 12.1952 12.7071 12.3827C12.8946 12.5703 13 12.8246 13 13.0898C13 13.3551 12.8946 13.6094 12.7071 13.797C12.5196 13.9845 12.2652 14.0898 12 14.0898Z" fill="#232323"/>
</svg>
