<svg width="21" height="21" viewBox="0 0 21 21" fill="none" xmlns="http://www.w3.org/2000/svg">
<path d="M20.8941 10.672C20.8941 11.402 20.4231 12.052 19.6041 12.462L3.18409 20.672C2.78409 20.872 2.39409 20.972 2.03409 20.972C1.51309 20.972 1.05409 20.752 0.763088 20.363C0.514088 20.022 0.274088 19.432 0.564088 18.472L2.41409 12.302C2.47409 12.122 2.51409 11.903 2.53409 11.672H12.6641C13.2141 11.672 13.6641 11.222 13.6641 10.672C13.6641 10.122 13.2141 9.67197 12.6641 9.67197H2.53409C2.51309 9.44197 2.47309 9.22197 2.41409 9.04197L0.564088 2.87197C0.274088 1.91197 0.514088 1.32197 0.764088 0.981967C1.25409 0.321967 2.18409 0.171967 3.18409 0.671967L19.6051 8.88197C20.4241 9.29197 20.8941 9.94197 20.8941 10.672Z" fill="#4ABB82"/>
</svg>
