<svg width="21" height="21" viewBox="0 0 21 21" fill="none" xmlns="http://www.w3.org/2000/svg">
<g clip-path="url(#clip0_1_1634)">
<path d="M18.1328 5.08984C18.1328 4.59256 17.9353 4.11565 17.5836 3.76402C17.232 3.41239 16.7551 3.21484 16.2578 3.21484H5.00781C4.51053 3.21484 4.03362 3.41239 3.68199 3.76402C3.33036 4.11565 3.13281 4.59256 3.13281 5.08984V5.71484H18.1328V5.08984ZM14.3828 0.714844H6.88281C6.49597 0.715931 6.11894 0.836643 5.8034 1.06043C5.48786 1.28422 5.24926 1.60013 5.12031 1.96484H16.1453C16.0164 1.60013 15.7778 1.28422 15.4622 1.06043C15.1467 0.836643 14.7697 0.715931 14.3828 0.714844ZM18.1328 6.96484H3.13281C2.63553 6.96484 2.15862 7.16239 1.80699 7.51402C1.45536 7.86565 1.25781 8.34256 1.25781 8.83984V17.5898C1.25781 18.0871 1.45536 18.564 1.80699 18.9157C2.15862 19.2673 2.63553 19.4648 3.13281 19.4648H18.1328C18.6301 19.4648 19.107 19.2673 19.4586 18.9157C19.8103 18.564 20.0078 18.0871 20.0078 17.5898V8.83984C20.0078 8.34256 19.8103 7.86565 19.4586 7.51402C19.107 7.16239 18.6301 6.96484 18.1328 6.96484Z" fill="white"/>
</g>
<defs>
<clipPath id="clip0_1_1634">
<rect width="20" height="20" fill="white" transform="translate(0.632812 0.0898438)"/>
</clipPath>
</defs>
</svg>
