<svg width="45" height="45" viewBox="0 0 45 45" fill="none" xmlns="http://www.w3.org/2000/svg">
<path d="M14.0115 27.5047C13.6834 27.5046 13.3661 27.3872 13.117 27.1737C12.8679 26.9602 12.7033 26.6647 12.653 26.3405L9.46296 5.62199C9.44854 5.51186 9.39398 5.41092 9.30974 5.33852C9.2255 5.26613 9.11751 5.22736 9.00646 5.22966H5.08313C4.71846 5.22966 4.36872 5.08479 4.11086 4.82693C3.853 4.56906 3.70813 4.21933 3.70813 3.85466C3.70813 3.48998 3.853 3.14025 4.11086 2.88238C4.36872 2.62452 4.71846 2.47966 5.08313 2.47966H9.00646C9.77824 2.47183 10.5264 2.74537 11.1112 3.24913C11.6959 3.7529 12.0772 4.45239 12.1836 5.21682L15.3681 25.9207C15.3958 26.0992 15.388 26.2814 15.3451 26.4569C15.3023 26.6324 15.2253 26.7978 15.1186 26.9435C15.0118 27.0893 14.8774 27.2125 14.723 27.3063C14.5686 27.4001 14.3972 27.4625 14.2186 27.49C14.1488 27.5002 14.0783 27.5051 14.0078 27.5047H14.0115Z" fill="#1D1D35"/>
<path d="M37.6247 29.0631H15.8227C15.0552 29.067 14.312 28.7941 13.7294 28.2944C13.1468 27.7946 12.764 27.1016 12.6511 26.3424L10.1027 9.80209C10.0719 9.60006 10.0866 9.39369 10.1456 9.19802C10.2045 9.00234 10.3064 8.82228 10.4437 8.67093C10.5785 8.51622 10.7473 8.39495 10.9369 8.31668C11.1266 8.23841 11.3318 8.20529 11.5364 8.21993L39.6011 9.69943C40.0734 9.72456 40.5344 9.85383 40.9509 10.078C41.3674 10.3021 41.7293 10.6156 42.0105 10.996C42.2917 11.3763 42.4853 11.8141 42.5774 12.2781C42.6696 12.742 42.658 13.2206 42.5436 13.6796L38.9594 28.0218C38.885 28.3193 38.7132 28.5835 38.4713 28.7722C38.2295 28.9609 37.9315 29.0633 37.6247 29.0631ZM13.0801 11.0561L15.3699 25.9244C15.3869 26.0325 15.4418 26.1309 15.5248 26.2021C15.6078 26.2733 15.7134 26.3127 15.8227 26.3131H36.5522L39.8761 13.0141C39.8924 12.9484 39.894 12.88 39.8807 12.8137C39.8675 12.7473 39.8397 12.6847 39.7994 12.6304C39.7591 12.5761 39.7072 12.5314 39.6476 12.4994C39.5879 12.4675 39.522 12.4492 39.4544 12.4458L13.0801 11.0561Z" fill="#1D1D35"/>
<path d="M18.8331 42.3547C20.3519 42.3547 21.5831 41.1235 21.5831 39.6047C21.5831 38.086 20.3519 36.8547 18.8331 36.8547C17.3143 36.8547 16.0831 38.086 16.0831 39.6047C16.0831 41.1235 17.3143 42.3547 18.8331 42.3547Z" fill="#1D1D35"/>
<path d="M31.6665 42.3547C33.1853 42.3547 34.4165 41.1235 34.4165 39.6047C34.4165 38.086 33.1853 36.8547 31.6665 36.8547C30.1477 36.8547 28.9165 38.086 28.9165 39.6047C28.9165 41.1235 30.1477 42.3547 31.6665 42.3547Z" fill="#1D1D35"/>
<path d="M34.8198 34.5631H14.2498C13.8851 34.5631 13.5353 34.4182 13.2775 34.1604C13.0196 33.9025 12.8748 33.5528 12.8748 33.1881C12.8748 32.8234 13.0196 32.4737 13.2775 32.2158C13.5353 31.958 13.8851 31.8131 14.2498 31.8131H34.8198C34.9216 31.8146 35.021 31.7812 35.1013 31.7185C35.1817 31.6558 35.2382 31.5676 35.2616 31.4684L39.9036 12.9426C39.9475 12.7674 40.0255 12.6027 40.1332 12.4577C40.2408 12.3127 40.3759 12.1903 40.5308 12.0975C40.6857 12.0047 40.8574 11.9433 41.0361 11.9169C41.2147 11.8905 41.3968 11.8995 41.5719 11.9434C41.7471 11.9874 41.9119 12.0654 42.0569 12.173C42.2019 12.2806 42.3242 12.4157 42.417 12.5707C42.5098 12.7256 42.5712 12.8973 42.5976 13.0759C42.624 13.2545 42.615 13.4366 42.5711 13.6118L37.9328 32.1284C37.7624 32.8247 37.3627 33.4435 36.7981 33.8851C36.2334 34.3267 35.5366 34.5655 34.8198 34.5631Z" fill="#1D1D35"/>
<path d="M22.4998 21.7297C22.1351 21.7297 21.7853 21.5848 21.5275 21.3269C21.2696 21.0691 21.1248 20.7193 21.1248 20.3547V16.688C21.1248 16.3233 21.2696 15.9736 21.5275 15.7157C21.7853 15.4579 22.1351 15.313 22.4998 15.313C22.8644 15.313 23.2142 15.4579 23.472 15.7157C23.7299 15.9736 23.8748 16.3233 23.8748 16.688V20.3547C23.8748 20.7193 23.7299 21.0691 23.472 21.3269C23.2142 21.5848 22.8644 21.7297 22.4998 21.7297ZM29.8331 21.7297C29.4684 21.7297 29.1187 21.5848 28.8608 21.3269C28.603 21.0691 28.4581 20.7193 28.4581 20.3547V16.688C28.4581 16.3233 28.603 15.9736 28.8608 15.7157C29.1187 15.4579 29.4684 15.313 29.8331 15.313C30.1978 15.313 30.5475 15.4579 30.8054 15.7157C31.0632 15.9736 31.2081 16.3233 31.2081 16.688V20.3547C31.2081 20.7193 31.0632 21.0691 30.8054 21.3269C30.5475 21.5848 30.1978 21.7297 29.8331 21.7297Z" fill="#4ABB82"/>
</svg>
