<svg width="35" height="36" viewBox="0 0 35 36" fill="none" xmlns="http://www.w3.org/2000/svg">
<g clip-path="url(#clip0_1_1415)">
<path d="M31.7017 7.82502L23.2935 2.31996C21.5212 1.18513 19.459 0.586159 17.3545 0.595006C15.2501 0.603854 13.193 1.22014 11.4303 2.36983L3.24713 7.82575C2.24713 8.49035 1.42724 9.3922 0.860646 10.4508C0.294048 11.5094 -0.00162933 12.6919 6.75295e-06 13.8926V22.2325C-0.00160524 23.4332 0.294083 24.6156 0.86068 25.6741C1.42728 26.7327 2.24715 27.6346 3.24713 28.2991L11.4303 33.7551C13.1853 34.9249 15.2453 35.5533 17.3544 35.5621C19.4635 35.571 21.5288 34.96 23.2935 33.8049L31.7017 28.3013C32.7162 27.6396 33.5492 26.735 34.1252 25.6695C34.7012 24.6041 35.0019 23.4116 35 22.2004V13.9246C35.0019 12.7136 34.7012 11.5214 34.1252 10.4561C33.5491 9.39089 32.7161 8.48646 31.7017 7.82502ZM32.0833 22.2004C32.0843 22.9271 31.9037 23.6425 31.558 24.2818C31.2123 24.921 30.7124 25.4638 30.1038 25.8608L21.6956 31.3656C20.4034 32.1921 18.9001 32.6283 17.3662 32.6217C15.8323 32.6151 14.3328 32.1661 13.0477 31.3285L4.86486 25.8726C4.26487 25.4738 3.77296 24.9327 3.43301 24.2975C3.09307 23.6624 2.91568 22.9529 2.91667 22.2325V13.8926C2.91568 13.1721 3.09307 12.4627 3.43301 11.8275C3.77296 11.1923 4.26487 10.6512 4.86486 10.2524L13.0482 4.7965C14.3275 3.9438 15.8291 3.48571 17.3665 3.47912C18.904 3.47254 20.4095 3.91775 21.6961 4.75946L30.1042 10.2645C30.7129 10.6615 31.2127 11.2042 31.5584 11.8434C31.904 12.4826 32.0844 13.198 32.0833 13.9246V22.2004Z" fill="white"/>
<path d="M28.3407 12.4379L21.6842 16.7872C20.3924 17.6108 18.8909 18.045 17.359 18.0381C15.827 18.0311 14.3295 17.5832 13.0453 16.748L6.67237 12.4896C6.35079 12.2781 5.95864 12.2023 5.58139 12.2787C5.20415 12.3551 4.87242 12.5776 4.65852 12.8976C4.44462 13.2176 4.3659 13.6092 4.43953 13.987C4.51316 14.3648 4.73317 14.6981 5.05158 14.9144L11.4261 19.1748C12.8116 20.0935 14.3918 20.6772 16.0417 20.8799V29.7292C16.0417 30.116 16.1954 30.4869 16.4689 30.7604C16.7423 31.0339 17.1133 31.1875 17.5001 31.1875C17.8868 31.1875 18.2578 31.0339 18.5313 30.7604C18.8047 30.4869 18.9584 30.116 18.9584 29.7292V20.8667C20.504 20.6449 21.9814 20.0842 23.285 19.2247L29.9357 14.8788C30.1009 14.7763 30.2439 14.6419 30.3564 14.4833C30.4689 14.3248 30.5485 14.1453 30.5906 13.9555C30.6327 13.7657 30.6365 13.5695 30.6017 13.3782C30.5668 13.187 30.4941 13.0046 30.3878 12.8419C30.2814 12.6791 30.1436 12.5393 29.9825 12.4306C29.8213 12.3219 29.64 12.2465 29.4493 12.2088C29.2586 12.1712 29.0623 12.1721 28.8719 12.2114C28.6815 12.2507 28.5009 12.3277 28.3407 12.4379Z" fill="#4ABB82"/>
</g>
<defs>
<clipPath id="clip0_1_1415">
<rect width="35" height="35" fill="white" transform="translate(0 0.5625)"/>
</clipPath>
</defs>
</svg>
