<svg width="45" height="45" viewBox="0 0 45 45" fill="none" xmlns="http://www.w3.org/2000/svg">
<path d="M36.7399 41.8988H7.40658C6.55716 41.894 5.7439 41.5545 5.14326 40.9538C4.54262 40.3532 4.20305 39.5399 4.19824 38.6905V5.69051C4.20305 4.84109 4.54262 4.02783 5.14326 3.42719C5.7439 2.82656 6.55716 2.48699 7.40658 2.48218H36.7399C37.5893 2.48699 38.4026 2.82656 39.0032 3.42719C39.6039 4.02783 39.9434 4.84109 39.9482 5.69051V38.6905C39.9434 39.5399 39.6039 40.3532 39.0032 40.9538C38.4026 41.5545 37.5893 41.894 36.7399 41.8988ZM7.40658 5.23218C7.28502 5.23218 7.16844 5.28047 7.08248 5.36642C6.99653 5.45237 6.94824 5.56895 6.94824 5.69051V38.6905C6.94824 38.8121 6.99653 38.9286 7.08248 39.0146C7.16844 39.1006 7.28502 39.1488 7.40658 39.1488H36.7399C36.8615 39.1488 36.978 39.1006 37.064 39.0146C37.15 38.9286 37.1982 38.8121 37.1982 38.6905V5.69051C37.1982 5.56895 37.15 5.45237 37.064 5.36642C36.978 5.28047 36.8615 5.23218 36.7399 5.23218H7.40658Z" fill="#1D1D35"/>
<path d="M11.0732 41.8988H7.40658C6.55716 41.894 5.7439 41.5545 5.14326 40.9538C4.54262 40.3532 4.20305 39.5399 4.19824 38.6905V5.69051C4.20305 4.84109 4.54262 4.02783 5.14326 3.42719C5.7439 2.82656 6.55716 2.48699 7.40658 2.48218H11.0732C11.4379 2.48218 11.7877 2.62704 12.0455 2.88491C12.3034 3.14277 12.4482 3.49251 12.4482 3.85718C12.4482 4.22185 12.3034 4.57159 12.0455 4.82945C11.7877 5.08731 11.4379 5.23218 11.0732 5.23218H7.40658C7.28502 5.23218 7.16844 5.28047 7.08248 5.36642C6.99653 5.45237 6.94824 5.56895 6.94824 5.69051V38.6905C6.94824 38.8121 6.99653 38.9286 7.08248 39.0146C7.16844 39.1006 7.28502 39.1488 7.40658 39.1488H9.69824V9.35718C9.69824 8.99251 9.84311 8.64277 10.101 8.38491C10.3588 8.12704 10.7086 7.98218 11.0732 7.98218C11.4379 7.98218 11.7877 8.12704 12.0455 8.38491C12.3034 8.64277 12.4482 8.99251 12.4482 9.35718V40.5238C12.4435 40.887 12.2971 41.234 12.0403 41.4909C11.7834 41.7477 11.4364 41.8941 11.0732 41.8988Z" fill="#1D1D35"/>
<path d="M25.7399 14.3989H18.4066C18.0419 14.3989 17.6921 14.2541 17.4343 13.9962C17.1764 13.7383 17.0316 13.3886 17.0316 13.0239C17.0316 12.6593 17.1764 12.3095 17.4343 12.0517C17.6921 11.7938 18.0419 11.6489 18.4066 11.6489H25.7399C26.1046 11.6489 26.4543 11.7938 26.7122 12.0517C26.97 12.3095 27.1149 12.6593 27.1149 13.0239C27.1149 13.3886 26.97 13.7383 26.7122 13.9962C26.4543 14.2541 26.1046 14.3989 25.7399 14.3989ZM31.2399 21.7323H18.4066C18.0419 21.7323 17.6921 21.5874 17.4343 21.3295C17.1764 21.0717 17.0316 20.7219 17.0316 20.3573C17.0316 19.9926 17.1764 19.6429 17.4343 19.385C17.6921 19.1271 18.0419 18.9823 18.4066 18.9823H31.2399C31.6046 18.9823 31.9543 19.1271 32.2122 19.385C32.47 19.6429 32.6149 19.9926 32.6149 20.3573C32.6149 20.7219 32.47 21.0717 32.2122 21.3295C31.9543 21.5874 31.6046 21.7323 31.2399 21.7323Z" fill="#4ABB82"/>
</svg>
