<svg width="149" height="30" viewBox="0 0 149 30" fill="none" xmlns="http://www.w3.org/2000/svg">
<path d="M42.7127 16.2567C43.4762 15.5768 43.992 14.5672 44.2809 13.2073C44.3634 12.7334 44.4253 12.2183 44.4253 11.6826C44.4253 11.0851 44.3015 10.4463 44.0539 9.80758C43.7444 9.00401 43.3317 8.57132 42.8365 8.4683C42.0937 8.32407 41.3715 8.73616 40.6905 9.74577C40.1334 10.5287 39.7826 11.3529 39.5969 12.1977C39.4937 12.6716 39.4525 13.1867 39.4525 13.7018C39.4525 14.2993 39.5763 14.9381 39.8239 15.5768C40.1334 16.3804 40.5461 16.8131 41.0413 16.9161C41.5572 17.0191 42.1143 16.7925 42.7127 16.2567Z" fill="#BBBCC3"/>
<path d="M31.3436 13.2073C31.0547 14.5672 30.5389 15.5768 29.7754 16.2567C29.177 16.7925 28.6199 17.0191 28.104 16.9161C27.6088 16.8131 27.1961 16.3804 26.8866 15.5768C26.639 14.9381 26.5152 14.2993 26.5152 13.7018C26.5152 13.1867 26.5565 12.6716 26.6596 12.1977C26.8453 11.3529 27.1961 10.5287 27.7532 9.74577C28.4342 8.73616 29.1564 8.32407 29.8992 8.4683C30.3944 8.57132 30.8071 9.00401 31.1166 9.80758C31.3642 10.4463 31.488 11.0851 31.488 11.6826C31.488 12.2183 31.4468 12.7334 31.3436 13.2073Z" fill="#BBBCC3"/>
<path fill-rule="evenodd" clip-rule="evenodd" d="M4.68412 0H45.7669C48.3668 0 50.4715 2.10164 50.4715 4.69778V20.3571C50.4715 22.9532 48.3668 25.0549 45.7669 25.0549H31.0341L33.0562 29.9999L24.1629 25.0549H4.70476C2.10484 25.0549 0.000150436 22.9532 0.000150436 20.3571V4.69778C-0.0204838 2.12224 2.08421 0 4.68412 0ZM2.51756 4.26499C2.80644 3.87351 3.23976 3.66746 3.81751 3.62625C4.86986 3.54383 5.46825 4.03834 5.61269 5.10977C6.25235 9.41607 6.95392 13.063 7.69675 16.0507L12.2157 7.45866C12.6283 6.67569 13.1442 6.26361 13.7632 6.2224C14.6711 6.16059 15.2282 6.7375 15.4552 7.95316C15.9711 10.6935 16.6314 13.0218 17.4155 14.9998C17.952 9.76634 18.8599 5.99575 20.1392 3.66746C20.4487 3.09054 20.9027 2.80208 21.5011 2.76087C21.9756 2.71967 22.409 2.8639 22.801 3.17296C23.1931 3.48203 23.3994 3.8735 23.4407 4.3474C23.4613 4.71828 23.3994 5.02735 23.2343 5.33641C22.4296 6.81993 21.7693 9.31305 21.2328 12.7746C20.717 16.1331 20.5313 18.7498 20.6551 20.6248C20.6963 21.1399 20.6138 21.5932 20.4074 21.9847C20.1598 22.438 19.7884 22.6853 19.3138 22.7265C18.7773 22.7677 18.2202 22.5204 17.6837 21.9641C15.7647 20.0067 14.2378 17.0809 13.1236 13.1867C11.7823 15.824 10.7919 17.802 10.1522 19.1207C8.93481 21.449 7.9031 22.644 7.03646 22.7059C6.47933 22.7471 6.00475 22.2732 5.59206 21.2842C4.53971 18.585 3.40483 13.3721 2.18741 5.64548C2.12551 5.10977 2.22868 4.63587 2.51756 4.26499ZM46.8808 7.4999C46.138 6.20183 45.0444 5.41886 43.5793 5.1098C43.1873 5.02738 42.8159 4.98617 42.4651 4.98617C40.4842 4.98617 38.8747 6.01639 37.616 8.07682C36.543 9.82819 36.0066 11.765 36.0066 13.8872C36.0066 15.4738 36.3367 16.8337 36.997 17.9669C37.7398 19.265 38.8334 20.0479 40.2985 20.357C40.6905 20.4394 41.062 20.4806 41.4127 20.4806C43.4143 20.4806 45.0237 19.4504 46.2618 17.39C47.3348 15.618 47.8712 13.6812 47.8712 11.559C47.8712 9.95181 47.5411 8.61253 46.8808 7.4999ZM30.642 5.1098C32.0864 5.41886 33.2007 6.20183 33.9435 7.4999C34.6038 8.61253 34.934 9.95181 34.934 11.559C34.934 13.6812 34.3975 15.618 33.3245 17.39C32.0864 19.4504 30.477 20.4806 28.4754 20.4806C28.1247 20.4806 27.7532 20.4394 27.3612 20.357C25.8962 20.0479 24.8025 19.265 24.0597 17.9669C23.3994 16.8337 23.0693 15.4738 23.0693 13.8872C23.0693 11.765 23.6058 9.82819 24.6787 8.07682C25.9374 6.01639 27.5469 4.98617 29.5278 4.98617C29.8786 4.98617 30.25 5.02738 30.642 5.1098Z" fill="#BBBCC3"/>
<path d="M53.6285 12.507C53.6285 10.4054 54.3095 8.67462 55.692 7.31474C57.0745 5.95485 58.8077 5.2749 60.9124 5.29551C61.7172 5.29551 62.4806 5.37793 63.1616 5.56337V8.90127C62.4187 8.69522 61.7378 8.5922 61.0981 8.5922C60.1077 8.5922 59.303 8.96308 58.6427 9.72544C58.003 10.4672 57.6729 11.4356 57.6729 12.61C57.6729 13.8669 58.003 14.8559 58.6633 15.5977C59.3236 16.3188 60.1902 16.6897 61.2838 16.6897C61.8203 16.6897 62.4394 16.5867 63.1616 16.3806V19.7185C62.3775 19.9452 61.6553 20.0482 61.0156 20.0482C58.8077 20.0482 57.0332 19.3477 55.6713 17.9672C54.3095 16.5867 53.6285 14.7529 53.6285 12.507Z" fill="#BBBCC3"/>
<path fill-rule="evenodd" clip-rule="evenodd" d="M65.5551 7.1705C66.6281 5.91364 68.1138 5.2749 70.0121 5.2749C72.0343 5.2749 73.5818 5.91364 74.6755 7.1705C75.7484 8.44797 76.2849 10.2612 76.2849 12.61C76.2849 14.9589 75.7484 16.7927 74.6961 18.0908C73.6438 19.3889 72.1375 20.0482 70.1772 20.0482C68.155 20.0482 66.6075 19.3889 65.5551 18.0908C64.5028 16.7927 63.9663 14.9177 63.9663 12.4658C63.9663 10.1993 64.4822 8.42737 65.5551 7.1705ZM70.0121 16.8545C70.7137 16.8545 71.2708 16.5661 71.6422 15.9892C72.0136 15.4122 72.22 14.2584 72.2406 12.5688C72.2406 9.82846 71.4978 8.46857 70.0534 8.46857C68.6709 8.46857 67.99 9.80786 67.99 12.507C67.99 14.2584 68.155 15.4122 68.5058 15.9892C68.8566 16.5661 69.3518 16.8545 70.0121 16.8545Z" fill="#BBBCC3"/>
<path d="M85.7354 8.81885L86.4782 5.66639H91.3892L93.2875 19.6979H89.5321L88.521 10.0551L86.1687 19.6979H83.6101L81.1546 10.0345L80.1848 19.6979H76.5945L78.3896 5.66639H83.1768C83.8577 8.69523 84.3942 11.2914 84.7863 13.4754L85.1989 11.2914C85.364 10.4466 85.5497 9.62242 85.7354 8.81885Z" fill="#BBBCC3"/>
<path d="M102.924 8.81885L103.667 5.66639H108.557L110.455 19.6979H106.7L105.689 10.0551L103.357 19.6979H100.798L98.3429 10.0345L97.3731 19.6979H93.7828L95.578 5.66639H100.365C101.046 8.69523 101.583 11.2914 101.975 13.4754L102.387 11.2914C102.552 10.4466 102.738 9.62242 102.924 8.81885Z" fill="#BBBCC3"/>
<path d="M118.709 14.1554H115.346V16.7309H119.245V19.7185H111.549V5.68699H119.225V8.67462H115.346V11.2502H118.709V14.1554Z" fill="#BBBCC3"/>
<path fill-rule="evenodd" clip-rule="evenodd" d="M130.532 9.95209C130.532 10.632 130.326 11.2914 129.934 11.9301C129.542 12.5688 128.964 13.0427 128.242 13.3724L131.275 19.6979H127.272L124.198 13.3106H124.136V19.6979H120.339V5.66639H124.755C126.529 5.66639 127.953 6.05787 128.985 6.82023C130.016 7.58259 130.532 8.63341 130.532 9.95209ZM124.115 8.36555V11.7035C125.786 11.6829 126.632 11.1883 126.632 10.2199C126.632 9.5606 126.447 9.10731 126.055 8.81885C125.663 8.53039 125.023 8.38616 124.115 8.36555Z" fill="#BBBCC3"/>
<path d="M130.697 12.507C130.697 10.4054 131.378 8.67462 132.761 7.31474C134.143 5.95485 135.897 5.2749 137.981 5.29551C138.786 5.29551 139.55 5.37793 140.23 5.56337V8.90127C139.488 8.69522 138.807 8.5922 138.167 8.5922C137.177 8.5922 136.372 8.96308 135.712 9.72544C135.072 10.4672 134.742 11.4356 134.742 12.61C134.742 13.8669 135.072 14.8559 135.732 15.5977C136.392 16.3188 137.259 16.6897 138.353 16.6897C138.889 16.6897 139.508 16.5867 140.23 16.3806V19.7185C139.446 19.9452 138.724 20.0482 138.085 20.0482C135.877 20.0482 134.102 19.3477 132.74 17.9672C131.378 16.5867 130.697 14.7529 130.697 12.507Z" fill="#BBBCC3"/>
<path d="M145.079 14.1348V16.7103H149V19.6979H141.303V5.66639H148.979V8.65402H145.079V11.2296H148.443V14.1348H145.079Z" fill="#BBBCC3"/>
</svg>
